<?xml version="1.0" standalone="no"?>
<!DOCTYPE svg PUBLIC "-//W3C//DTD SVG 20010904//EN"
 "http://www.w3.org/TR/2001/REC-SVG-20010904/DTD/svg10.dtd">
<svg version="1.0" xmlns="http://www.w3.org/2000/svg"
 width="780.000000pt" height="900.000000pt" viewBox="0 0 780.000000 900.000000"
 preserveAspectRatio="xMidYMid meet">

<g transform="translate(0.000000,900.000000) scale(0.100000,-0.100000)"
fill="#000000" stroke="none">
<path d="M0 4474 c0 -2394 3 -3613 10 -3609 6 3 10 -1 10 -10 0 -9 -5 -13 -10
-10 -7 4 -10 -138 -10 -419 l0 -426 990 0 c884 0 1072 5 978 23 -18 3 -16 5 7
6 17 0 37 -5 44 -11 10 -11 14 -10 22 4 14 24 33 23 26 -2 -4 -16 0 -20 22
-20 15 0 35 9 45 21 14 16 20 19 26 9 5 -8 13 -9 21 -4 12 6 12 5 0 -9 -13
-16 10 -17 385 -17 350 1 397 3 380 16 -19 13 -18 14 11 14 39 0 65 -9 57 -21
-3 -5 7 -9 23 -8 24 0 25 2 8 8 -19 8 -19 8 3 20 13 7 22 8 22 2 0 -21 83 -29
325 -30 238 -1 355 9 355 31 0 4 19 8 41 8 28 0 46 6 55 18 13 16 15 16 28 0
18 -24 43 -23 58 2 19 29 29 24 23 -10 -6 -33 -1 -37 21 -16 9 9 10 16 3 18
-6 2 8 8 30 14 34 9 41 9 41 -3 0 -10 -6 -13 -16 -9 -11 4 -14 1 -12 -12 2
-12 12 -17 38 -16 19 1 43 5 53 9 12 5 28 1 45 -12 26 -18 45 -19 392 -19 339
1 365 2 368 19 2 10 -3 17 -13 17 -9 0 -13 5 -10 11 7 10 113 3 125 -8 3 -2
-6 -12 -19 -22 -23 -17 -21 -18 83 -20 72 -1 106 2 106 9 0 6 8 9 18 6 63 -17
80 -17 78 1 -2 10 -14 20 -27 23 -13 3 -25 11 -27 18 -1 8 5 11 22 6 13 -3 27
-1 30 5 4 6 18 11 32 11 13 0 24 4 24 10 0 6 -18 7 -45 3 -41 -5 -45 -4 -39
12 8 21 -30 54 -62 55 -22 0 -36 24 -50 83 -5 23 -11 27 -39 27 -19 0 -36 -4
-40 -10 -3 -5 -13 -7 -23 -4 -11 4 -13 3 -6 -3 7 -5 8 -16 3 -31 -6 -17 -14
-21 -31 -17 -13 3 -43 7 -68 8 -35 3 -44 7 -42 19 1 9 -2 19 -8 23 -18 11 -11
23 22 34 21 8 35 8 42 1 16 -16 30 -12 16 5 -7 8 -11 15 -9 16 2 0 56 2 119 5
63 2 158 9 210 14 180 19 285 32 330 40 25 5 61 5 80 0 l35 -8 -30 -2 c-25 -2
-23 -4 15 -11 97 -17 124 -3 122 62 -1 23 1 40 4 36 3 -3 19 -1 34 5 20 7 34
6 47 -2 17 -11 16 -11 -2 -5 -19 6 -19 5 -3 -11 16 -16 24 -17 95 -5 92 16
128 16 203 2 30 -6 66 -9 80 -6 19 4 21 3 10 -5 -13 -8 -13 -10 3 -10 9 0 17
-6 17 -14 0 -9 13 -12 48 -11 36 2 38 1 7 -2 -29 -3 -35 -7 -25 -14 12 -7 10
-8 -5 -5 -40 8 -65 19 -65 27 0 5 -7 9 -16 9 -12 0 -11 -5 7 -20 l24 -19 -25
-1 c-25 -1 -25 -1 5 -17 17 -9 53 -17 80 -18 28 -1 63 -8 79 -16 23 -11 30
-11 34 -1 2 6 18 12 35 11 18 0 26 -3 20 -6 -7 -2 -13 -9 -13 -15 0 -11 80 -1
94 13 5 4 18 3 29 -3 16 -8 23 -7 33 7 7 9 18 14 24 10 9 -5 10 -1 5 14 -5 17
-2 21 14 21 12 0 21 5 21 11 0 6 7 9 15 5 9 -3 15 0 15 9 0 21 -17 27 -32 12
-11 -11 -16 -12 -25 -1 -9 9 -8 14 5 19 29 13 86 13 120 2 27 -9 35 -9 42 3 7
10 10 11 10 3 0 -7 6 -13 14 -13 20 0 31 -21 16 -30 -8 -5 -4 -10 12 -14 22
-7 22 -8 -9 -17 -18 -5 -35 -14 -38 -19 -3 -6 -20 -10 -37 -10 -24 0 -29 -3
-24 -16 5 -13 2 -15 -15 -11 -12 3 -28 -2 -39 -13 -14 -14 -28 -17 -59 -13
-27 4 -41 2 -41 -6 0 -6 12 -12 28 -12 15 -1 36 -3 47 -4 11 -1 29 -2 39 -3
20 -2 20 -2 0 -16 -19 -14 -19 -15 0 -29 17 -13 17 -14 2 -20 -10 -4 -14 -11
-11 -17 3 -6 -1 -7 -10 -4 -11 5 -14 2 -9 -10 3 -9 2 -16 -4 -16 -6 0 -19 -3
-29 -6 -17 -5 -17 -5 0 6 20 13 14 30 -12 30 -9 0 -27 14 -39 30 -21 28 -62
42 -62 20 0 -18 -27 -10 -44 13 -15 21 -16 21 -29 4 -8 -9 -20 -17 -26 -17 -7
0 -9 -5 -6 -10 4 -6 11 -8 16 -5 15 10 10 -12 -6 -25 -8 -7 -25 -10 -37 -7
-13 4 -29 0 -40 -10 -10 -8 -26 -13 -38 -10 -27 7 -26 -10 2 -19 13 -4 24 -2
26 5 5 14 52 15 52 0 0 -30 -70 -64 -128 -61 -27 1 -55 -4 -69 -13 -12 -8 -31
-15 -41 -15 -10 0 -27 -6 -37 -14 -21 -15 -46 -11 -39 7 7 19 -123 20 -134 1
-6 -11 -13 -12 -38 -2 -18 6 -39 8 -50 3 -17 -7 -18 -8 -1 -12 9 -3 17 -9 17
-14 0 -5 80 -9 193 -8 105 1 183 3 172 6 -46 10 -51 13 -35 23 20 13 117 13
125 0 3 -5 1 -10 -5 -10 -6 0 -8 -4 -5 -10 4 -6 257 -10 700 -10 l695 0 0 90
c0 65 -3 90 -12 90 -9 0 -9 3 1 9 12 8 12 12 2 25 -9 11 -10 16 -2 16 8 0 11
57 11 195 0 149 -3 195 -12 195 -10 0 -10 2 -1 8 9 6 12 69 12 245 l0 238 -27
10 c-87 34 -117 60 -48 41 19 -6 45 -8 56 -5 18 5 17 7 -12 23 -41 21 -87 30
-112 21 -11 -4 -52 4 -100 21 -44 15 -104 32 -133 38 -28 6 -62 19 -75 29 -35
28 -94 50 -117 44 -11 -3 -43 3 -72 12 -41 14 -53 15 -59 4 -7 -10 -12 -10
-23 -1 -8 7 -28 12 -43 12 -16 0 -36 0 -44 0 -59 2 -128 -4 -124 -11 3 -5 -2
-9 -10 -9 -9 0 -16 5 -16 11 0 13 -101 5 -129 -11 -14 -7 -27 -7 -45 1 -20 9
-29 9 -41 -1 -12 -10 -15 -10 -15 4 0 9 -5 16 -12 16 -6 0 -9 2 -7 4 3 3 24 0
48 -5 30 -7 48 -6 55 1 7 7 -3 10 -33 10 -27 0 -40 4 -36 10 4 6 15 8 26 5 10
-4 19 -2 19 3 0 5 -39 15 -87 22 -49 7 -118 18 -154 25 -39 7 -86 9 -115 5
-27 -4 -55 -4 -64 1 -8 4 -29 13 -47 20 -17 7 -30 16 -28 19 2 3 -23 14 -56
24 -32 11 -57 21 -55 24 3 2 19 -1 37 -7 46 -16 80 -14 73 3 -5 12 6 15 55 14
33 0 58 -4 56 -8 -2 -4 28 -10 68 -14 140 -14 162 -17 197 -26 19 -5 47 -7 63
-5 15 2 25 0 22 -5 -3 -4 15 -13 40 -19 28 -7 45 -17 45 -26 0 -18 54 -21 95
-5 14 5 24 7 22 2 -3 -4 38 -7 91 -7 80 -1 104 -5 139 -23 41 -21 84 -32 55
-14 -10 7 11 7 123 -1 11 0 26 -7 34 -15 7 -7 19 -11 26 -9 6 3 38 -2 71 -10
32 -8 73 -17 89 -20 30 -4 43 -9 104 -36 19 -8 40 -13 48 -10 21 8 105 -17
129 -38 31 -29 54 -24 54 11 0 20 -7 33 -22 41 l-23 12 23 10 22 10 -1 294 c0
257 -2 294 -15 289 -8 -3 -50 -1 -92 6 -100 15 -221 12 -282 -6 -31 -9 -69
-13 -105 -9 -35 4 -55 2 -55 -5 0 -13 -46 -26 -89 -24 -18 1 -43 -5 -54 -13
-13 -9 -44 -15 -77 -15 -31 0 -61 -5 -68 -10 -9 -7 -9 -7 -2 2 6 7 10 19 10
27 0 11 -4 11 -19 -3 -17 -16 -22 -16 -43 -3 -20 13 -26 13 -50 -2 -16 -10
-26 -20 -23 -23 3 -3 -6 -8 -20 -10 -19 -4 -25 -2 -21 7 7 18 -17 25 -94 30
-36 3 -56 2 -45 -1 11 -3 36 -11 55 -18 19 -7 40 -11 47 -9 6 2 14 -1 18 -6 3
-6 -1 -11 -10 -11 -23 0 -115 29 -146 45 -16 9 -29 11 -35 5 -12 -12 -64 9
-63 25 0 6 4 31 8 57 4 26 4 45 -1 42 -4 -3 -8 0 -8 7 0 7 -13 10 -35 7 -19
-2 -32 -1 -27 4 10 10 102 16 96 6 -3 -4 3 -8 13 -8 11 0 28 -7 39 -15 10 -8
33 -15 51 -15 17 0 38 -3 47 -6 28 -11 6 -24 -40 -24 -49 0 -58 -15 -18 -30
37 -14 247 -13 238 1 -11 19 18 29 88 29 37 0 69 4 73 9 10 17 96 25 118 12
10 -7 21 -10 24 -7 4 3 11 -1 17 -9 8 -10 16 -12 26 -5 10 6 11 10 3 10 -7 0
-13 5 -13 10 0 6 9 10 19 10 11 0 21 5 23 11 3 9 9 9 25 0 32 -16 94 -15 87 3
-8 21 22 27 66 11 25 -9 66 -13 107 -11 54 4 73 1 94 -15 32 -22 39 -24 39 -6
0 17 -65 67 -89 67 -11 0 -30 4 -43 9 -13 5 -27 9 -31 9 -4 1 -14 7 -22 14
-98 89 -129 108 -170 108 -24 0 -52 9 -70 21 -65 44 -133 73 -186 80 -32 3
-82 18 -112 32 -30 15 -74 31 -98 36 -25 6 -70 21 -102 35 -53 24 -131 43
-151 38 -4 -2 -14 2 -21 8 -7 6 -52 13 -100 16 -48 2 -95 9 -104 13 -9 5 -30
11 -47 14 -17 3 -42 10 -54 17 -23 12 -198 73 -305 107 -27 8 -54 19 -60 23
-21 17 -175 59 -221 61 -27 1 -57 6 -66 11 -10 5 -44 11 -75 14 -32 3 -103 15
-158 26 -55 11 -118 21 -140 23 -22 2 -60 10 -85 19 -52 18 -171 21 -187 5
-11 -11 -59 -13 -223 -5 -87 4 -133 10 -300 45 -184 38 -276 37 -302 -3 -4 -6
-72 -12 -180 -14 -150 -3 -182 -6 -243 -27 -62 -21 -82 -23 -175 -18 -102 5
-160 -1 -320 -32 -41 -8 -121 -18 -178 -21 -89 -6 -104 -5 -121 10 -11 10 -24
15 -30 12 -13 -8 -64 -17 -133 -23 -45 -4 -58 -8 -58 -21 -1 -15 -2 -15 -13
-2 -17 22 -69 43 -76 32 -6 -9 -19 -8 -143 16 -20 4 -48 17 -62 30 -28 24
-109 32 -121 11 -5 -7 -35 -8 -89 -4 -148 12 -169 12 -225 6 -50 -5 -63 -2
-121 27 -51 26 -69 31 -83 22 -12 -7 -27 -6 -53 5 -41 17 -80 20 -88 6 -3 -5
-15 -7 -26 -4 -11 3 -20 0 -20 -6 0 -6 -21 -22 -47 -35 -27 -13 -64 -32 -83
-42 -19 -10 -49 -17 -67 -17 -18 1 -37 -5 -44 -13 -6 -8 -23 -14 -38 -14 -14
0 -46 -7 -70 -16 -24 -8 -65 -14 -91 -13 -25 1 -53 -2 -61 -7 -8 -4 -22 -7
-32 -6 -10 2 -24 -1 -30 -5 -13 -10 -49 -21 -160 -48 -37 -10 -79 -27 -94 -38
-23 -19 -42 -21 -172 -24 -94 -1 -154 2 -168 9 -18 9 -31 7 -65 -8 -48 -21
-67 -24 -87 -9 -11 7 -13 7 -8 -1 4 -7 -2 -11 -18 -11 -14 0 -22 3 -20 7 3 4
-2 11 -11 14 -28 11 -65 6 -70 -9 -11 -28 -24 -15 -24 24 0 36 3 41 43 60 24
12 48 21 54 21 6 0 26 13 44 30 19 16 43 30 54 30 22 0 72 48 121 115 48 66
58 76 91 91 18 9 43 26 57 39 16 15 27 19 30 12 2 -7 5 -1 6 13 5 73 15 84 93
100 54 12 69 20 114 66 29 28 53 56 53 61 0 12 62 59 73 55 5 -1 6 1 4 6 -3 4
14 25 39 46 24 21 44 47 44 58 0 10 5 16 10 13 6 -4 8 -10 6 -14 -3 -4 4 -18
16 -31 17 -18 27 -21 57 -15 20 4 50 7 66 7 40 -2 97 15 173 49 71 33 99 36
128 14 26 -20 127 -20 144 0 19 23 64 18 147 -15 41 -16 86 -30 100 -30 31 0
103 69 103 98 0 31 19 37 44 13 12 -12 32 -21 43 -21 22 0 33 -18 33 -55 0
-15 9 -29 23 -36 12 -7 28 -20 35 -31 16 -21 54 -23 85 -4 30 19 168 40 213
33 43 -7 133 18 141 39 3 8 18 14 34 14 23 0 29 5 29 21 0 12 4 17 11 14 6 -4
8 -13 5 -21 -3 -8 -3 -14 0 -14 10 0 34 29 34 41 0 8 4 8 15 -1 13 -11 23 -9
54 8 21 12 47 22 57 22 15 0 16 2 6 9 -19 11 -11 41 13 55 11 6 24 17 28 24 5
7 13 10 18 6 23 -14 74 7 97 39 l22 32 1 -40 1 -40 11 31 c11 28 14 29 37 17
35 -18 64 -17 56 2 -4 11 1 15 19 15 16 0 25 6 25 15 0 15 17 20 54 16 24 -2
53 29 58 60 2 20 8 23 31 21 26 -3 37 11 17 23 -5 3 -10 15 -10 25 0 10 -7 25
-15 34 -22 22 -19 26 21 26 28 0 37 -5 41 -20 4 -15 9 -18 18 -10 9 8 15 8 20
0 3 -5 -1 -13 -9 -16 -16 -6 -23 -44 -8 -44 5 0 24 -13 42 -30 18 -16 38 -30
44 -29 6 0 5 3 -1 6 -7 2 -13 9 -13 15 0 6 7 7 16 4 8 -3 13 -2 10 3 -7 11 38
23 58 15 27 -10 18 10 -22 49 -21 20 -46 37 -55 37 -12 0 -17 8 -17 30 0 16 3
29 8 28 4 -1 19 5 35 12 27 13 36 30 16 30 -6 0 -3 7 6 16 9 9 19 13 23 10 3
-4 0 -11 -8 -17 -11 -7 -9 -8 10 -7 16 2 25 -3 28 -14 2 -13 -3 -18 -17 -18
-12 0 -21 -4 -21 -10 0 -5 5 -10 10 -10 6 0 10 -7 10 -16 0 -8 7 -22 15 -31 9
-8 13 -18 10 -22 -4 -3 -12 2 -19 12 -14 18 -36 23 -36 8 0 -5 13 -23 29 -39
22 -22 33 -26 46 -19 14 8 15 6 7 -10 -9 -16 -7 -19 14 -21 17 -1 23 2 18 10
-4 7 -3 8 4 4 7 -4 12 -15 12 -26 0 -10 7 -20 15 -24 8 -3 20 -17 25 -31 5
-14 14 -25 19 -25 11 0 20 91 11 105 -4 6 -12 29 -19 53 -9 33 -10 47 -1 58 7
7 10 19 7 26 -5 13 17 41 26 32 2 -2 9 1 15 8 7 9 6 17 -3 25 -11 10 -15 9
-20 -6 -10 -33 -33 -33 -40 0 -4 16 -12 29 -18 29 -7 0 -17 11 -23 24 -11 24
-10 24 22 19 37 -6 44 6 19 31 -8 8 -15 19 -15 25 0 6 -4 11 -10 11 -5 0 -10
7 -10 16 0 13 3 14 15 4 14 -12 35 -6 35 9 0 5 -8 11 -18 15 -9 3 -23 9 -29
12 -9 4 -13 -2 -13 -17 0 -16 -3 -20 -10 -13 -8 8 -7 19 1 37 10 23 9 30 -6
47 -11 12 -13 20 -6 20 6 0 14 -7 17 -15 9 -22 24 -18 24 5 0 22 16 27 23 8 2
-7 8 -10 12 -6 10 9 -43 61 -54 53 -12 -7 -25 31 -16 45 3 5 2 10 -3 10 -5 0
-14 -10 -21 -22 -7 -15 -10 -16 -6 -4 4 15 1 17 -15 13 -11 -3 -20 -1 -20 3 0
5 -3 16 -7 26 -4 11 -3 15 4 11 23 -14 -1 39 -32 73 -18 19 -36 45 -40 58 -3
12 -11 22 -17 22 -5 0 -8 7 -4 15 3 8 1 15 -5 15 -6 0 -7 5 -4 10 3 6 1 10 -6
10 -8 0 -8 4 2 16 10 13 10 17 -2 25 -10 8 -7 8 11 3 l25 -6 -22 19 c-13 11
-20 23 -16 26 3 4 1 12 -5 20 -7 8 -7 18 -2 27 6 8 10 20 10 25 0 6 -4 4 -9
-3 -12 -20 -31 9 -45 70 -7 35 -17 53 -26 53 -8 0 -15 8 -15 19 0 14 8 19 33
21 17 2 32 -2 32 -7 0 -5 4 -6 10 -3 6 3 10 -1 10 -10 0 -8 11 -21 25 -27 14
-6 25 -15 25 -19 0 -5 6 -6 13 -4 6 3 24 -6 39 -20 26 -24 27 -24 49 -6 l22
18 -24 24 c-22 22 -36 55 -19 44 17 -10 21 16 9 53 -7 20 -13 40 -14 44 0 9
-52 48 -64 48 -6 0 -11 -7 -11 -15 0 -8 8 -15 19 -15 20 0 31 -25 31 -71 0
-23 -3 -26 -25 -21 -20 3 -24 8 -19 28 9 35 -2 59 -21 44 -20 -17 -40 0 -40
34 -1 18 -8 33 -20 40 -26 14 -35 27 -34 46 3 34 -2 60 -10 60 -14 0 -23 -33
-10 -41 6 -4 8 -12 4 -19 -4 -7 -2 -16 6 -21 14 -8 21 -79 7 -79 -4 0 -8 6 -8
14 0 24 -22 30 -37 11 -7 -11 -13 -15 -13 -11 0 4 -12 -6 -26 -21 l-27 -28 6
31 c5 24 1 36 -13 49 -11 10 -20 24 -20 32 0 8 -4 12 -8 9 -12 -7 -49 28 -57
54 -4 11 -10 18 -15 15 -9 -6 -23 25 -15 33 3 3 5 0 5 -6 0 -6 7 -9 15 -6 9 4
23 -4 35 -17 16 -21 19 -21 20 -6 0 20 -25 84 -42 104 -8 10 -14 10 -24 2 -7
-6 -18 -8 -25 -4 -6 4 -15 2 -19 -6 -6 -9 -11 -5 -15 14 -4 15 -11 27 -16 27
-6 0 -37 56 -70 125 -33 69 -64 123 -70 120 -5 -4 -9 3 -9 15 0 11 -7 23 -15
26 -10 4 -13 13 -10 25 6 17 1 19 -35 19 -22 0 -55 6 -73 13 -40 17 -149 13
-188 -7 -19 -10 -38 -12 -52 -7 -12 5 -60 6 -107 4 -78 -5 -91 -2 -160 26 -41
17 -85 31 -98 31 -12 0 -41 9 -63 21 -40 20 -144 99 -164 123 -5 7 -23 20 -40
29 -16 8 -43 29 -59 45 -25 27 -27 34 -18 61 8 22 8 48 0 90 -12 63 -3 91 28
91 20 0 17 40 -6 75 -11 17 -20 38 -20 48 0 26 -49 139 -71 163 -10 11 -19 23
-19 27 0 3 -11 23 -25 43 -14 20 -25 51 -25 69 0 21 -7 37 -20 46 -11 8 -23
29 -26 47 -7 32 -6 33 22 30 23 -2 30 -9 32 -30 5 -41 22 -34 22 8 0 48 28 43
53 -9 20 -44 37 -40 37 8 0 42 14 51 46 30 19 -12 25 -23 21 -41 -2 -13 0 -21
5 -18 10 6 38 -20 38 -35 0 -6 -10 -11 -21 -11 -21 0 -21 0 3 -32 13 -18 27
-41 31 -50 7 -21 33 -24 40 -5 4 7 6 6 6 -5 1 -19 46 -58 67 -58 8 0 14 9 14
19 0 11 5 23 10 26 18 11 10 40 -22 80 -18 22 -25 34 -15 26 10 -8 17 -9 17
-3 0 6 -11 19 -25 30 -16 12 -21 22 -13 24 8 3 4 12 -10 26 -12 12 -22 25 -22
30 0 10 -50 32 -71 32 -10 0 -21 5 -24 11 -8 12 -67 2 -76 -14 -12 -17 -29 3
-29 35 0 25 3 29 19 25 13 -3 22 3 30 19 9 21 5 27 -36 64 -41 36 -81 90 -66
90 2 0 19 -10 36 -21 l32 -22 -32 32 c-22 21 -37 29 -50 24 -10 -3 -15 -3 -11
1 9 11 -37 63 -119 134 -13 11 -23 24 -23 30 0 5 -7 13 -16 16 -8 3 -12 10 -9
16 3 5 -2 10 -13 10 -10 0 -31 11 -46 25 -14 13 -33 22 -41 19 -8 -4 -28 6
-45 22 -17 16 -36 29 -43 29 -7 0 -19 6 -27 13 -52 44 -133 97 -182 120 -32
14 -58 31 -58 38 0 6 -10 9 -24 7 -13 -3 -27 0 -30 6 -4 6 -2 11 5 11 10 0 10
3 1 12 -7 7 -36 10 -72 9 -48 -2 -60 1 -60 13 0 9 -4 16 -10 16 -5 0 -24 19
-41 43 -17 23 -40 47 -52 54 -21 12 -21 12 -2 13 15 0 17 2 6 9 -7 5 -23 6
-35 4 -17 -4 -18 -3 -6 6 8 6 10 11 4 11 -6 0 -22 10 -36 23 -13 12 -33 29
-43 37 -17 13 -18 13 -11 0 4 -8 1 -7 -7 3 -8 9 -21 16 -28 14 -8 -2 -11 -2
-6 1 13 7 -37 39 -73 47 -19 4 -59 22 -87 41 -29 19 -61 34 -71 34 -11 0 -29
9 -42 20 -13 11 -33 20 -46 20 -12 0 -29 7 -38 15 -8 8 -18 15 -23 15 -8 0
-37 22 -98 73 -18 15 -37 27 -41 27 -5 0 -42 25 -82 55 -40 30 -75 55 -78 55
-2 0 -4 -1627 -4 -3616z m2000 2176 c0 -5 -7 -10 -16 -10 -8 0 -12 5 -9 10 3
6 10 10 16 10 5 0 9 -4 9 -10z m1370 -1734 c0 -14 -4 -27 -9 -31 -12 -7 -25
31 -16 45 11 18 25 10 25 -14z m64 -11 c-4 -10 0 -15 14 -15 27 0 36 -15 18
-29 -11 -9 -15 -9 -19 1 -4 10 -8 10 -16 -2 -5 -8 -13 -11 -18 -7 -4 5 -1 13
7 18 12 8 12 12 2 16 -10 4 -10 8 -1 19 15 18 20 18 13 -1z m-77 -57 c-3 -8
-6 -5 -6 6 -1 11 2 17 5 13 3 -3 4 -12 1 -19z m209 -20 c5 -8 2 -9 -9 -5 -38
14 -14 -13 29 -34 40 -19 44 -23 29 -32 -13 -7 -20 -5 -27 7 -5 9 -15 16 -23
16 -17 0 -38 36 -30 50 8 13 22 13 31 -2z m-45 -738 c10 -6 19 -16 19 -23 0
-8 -3 -9 -8 -1 -4 6 -16 16 -27 22 -25 14 -11 16 16 2z m89 -236 c0 -8 -4 -12
-10 -9 -5 3 -10 10 -10 16 0 5 5 9 10 9 6 0 10 -7 10 -16z m-340 -160 c0 -8
-43 -43 -54 -44 -5 0 1 11 14 25 22 24 40 32 40 19z m-164 -41 c-10 -10 -19 5
-10 18 6 11 8 11 12 0 2 -7 1 -15 -2 -18z m31 5 c-3 -8 -6 -5 -6 6 -1 11 2 17
5 13 3 -3 4 -12 1 -19z m-907 -1223 c22 -26 78 -48 110 -42 24 5 28 3 27 -13
-1 -12 -11 -22 -29 -25 -38 -9 -43 -22 -8 -20 34 2 60 21 60 45 0 10 7 20 15
24 9 3 15 0 15 -9 0 -8 -4 -15 -10 -15 -20 0 -9 -18 14 -24 13 -3 26 -13 30
-21 4 -11 2 -14 -7 -10 -6 4 -5 1 4 -7 9 -7 14 -19 11 -27 -4 -11 2 -12 23 -7
19 5 33 2 46 -9 10 -10 22 -14 28 -11 5 4 12 2 15 -3 3 -5 15 -7 25 -4 12 3
28 -4 41 -17 17 -17 29 -21 51 -16 16 3 29 4 29 2 0 -3 3 -12 7 -22 5 -15 1
-16 -33 -11 -26 4 -32 4 -19 -2 18 -8 19 -9 3 -16 -24 -10 -23 -25 3 -25 12 0
17 -4 14 -11 -4 -6 -14 -8 -22 -5 -8 3 -23 1 -35 -5 -15 -8 -24 -7 -38 6 -10
9 -16 23 -13 31 3 8 1 14 -5 14 -11 0 -24 -28 -18 -39 3 -4 -9 -5 -25 -3 -17
3 -33 11 -36 18 -8 21 -44 17 -71 -8 l-24 -23 -19 27 c-50 69 -50 69 -99 56
-25 -6 -57 -21 -71 -34 -16 -15 -41 -26 -70 -28 -56 -6 -122 12 -115 31 8 21
-22 28 -43 9 -10 -9 -26 -16 -37 -16 -10 0 -28 -7 -38 -15 -11 -8 -28 -15 -39
-15 -10 0 -25 -7 -33 -15 -10 -10 -24 -13 -40 -9 -14 4 -36 1 -49 -6 -20 -11
-27 -9 -54 11 -17 13 -27 26 -21 29 6 4 -1 12 -15 20 -28 15 -33 30 -10 30 8
0 15 -4 15 -10 0 -5 9 -10 21 -10 11 0 17 4 14 10 -4 6 -1 17 5 25 10 12 10
18 0 30 -17 21 -3 34 37 37 33 2 53 26 32 38 -6 4 7 7 29 6 30 0 42 -5 46 -18
4 -19 36 -25 36 -7 0 19 60 71 75 65 17 -6 47 32 38 48 -3 6 0 5 8 -1 10 -10
10 -16 1 -25 -7 -7 -12 -20 -12 -29 0 -10 -8 -20 -18 -23 -11 -4 -28 -17 -40
-29 l-22 -23 27 1 c16 0 29 7 34 20 4 11 8 15 8 9 1 -14 53 -14 63 0 3 5 17
10 30 11 12 1 23 7 23 12 0 6 3 15 8 19 4 4 7 15 7 25 0 32 63 50 83 24 4 -5
5 2 3 18 -5 30 5 35 24 12z m-96 -10 c-7 -16 -24 -21 -24 -6 0 8 7 13 27 20 1
1 0 -6 -3 -14z m186 -5 c0 -5 -4 -10 -10 -10 -5 0 -10 5 -10 10 0 6 5 10 10
10 6 0 10 -4 10 -10z m2045 0 c3 -5 1 -10 -4 -10 -6 0 -11 5 -11 10 0 6 2 10
4 10 3 0 8 -4 11 -10z m-1890 -20 c-3 -5 -11 -10 -16 -10 -6 0 -7 5 -4 10 3 6
11 10 16 10 6 0 7 -4 4 -10z m560 -18 c6 -1 11 -8 13 -16 2 -11 -4 -16 -20
-16 -13 0 -31 -7 -41 -14 -16 -12 -16 -14 -1 -20 9 -3 20 -3 25 0 6 3 15 1 22
-4 7 -5 28 -9 47 -8 19 2 40 0 45 -3 10 -6 17 -7 49 -9 19 -2 19 -2 1 -15 -21
-16 -13 -37 14 -37 10 0 26 -11 35 -25 21 -33 20 -39 -6 -31 -43 13 -94 17
-78 7 8 -6 11 -13 7 -17 -3 -4 -13 -1 -22 6 -15 12 -37 3 -56 -23 -5 -7 -134
-35 -167 -37 -2 0 0 5 3 10 3 6 -4 10 -17 11 -13 0 -17 3 -10 6 22 9 13 23
-16 23 -22 0 -30 7 -39 30 -14 37 0 40 34 8 13 -12 26 -18 30 -14 5 4 0 13
-10 20 -28 21 -20 29 23 23 22 -3 40 -3 40 -1 0 9 -61 34 -70 29 -6 -3 -7 1
-4 9 4 10 1 16 -7 16 -7 0 -9 3 -6 6 4 4 13 1 21 -5 12 -10 22 -9 48 5 18 9
27 19 21 21 -18 6 -16 16 6 42 11 13 25 20 30 16 7 -3 8 0 5 10 -5 13 -2 14
17 6 13 -5 29 -9 34 -9z m1355 14 c0 -3 -4 -8 -10 -11 -5 -3 -10 -1 -10 4 0 6
5 11 10 11 6 0 10 -2 10 -4z m-2340 -16 c0 -5 -4 -10 -10 -10 -5 0 -10 5 -10
10 0 6 5 10 10 10 6 0 10 -4 10 -10z m2305 -40 c-16 -32 -35 -40 -35 -16 0 12
35 46 47 46 2 0 -3 -13 -12 -30z m-2880 -10 c3 -5 2 -10 -4 -10 -5 0 -13 5
-16 10 -3 6 -2 10 4 10 5 0 13 -4 16 -10z m-785 -10 c0 -5 -5 -10 -11 -10 -5
0 -7 5 -4 10 3 6 8 10 11 10 2 0 4 -4 4 -10z m2965 -20 c-13 -14 -22 -17 -29
-10 -5 5 -17 10 -25 10 -14 0 -14 -1 -1 -10 8 -5 16 -14 16 -20 3 -21 4 -22
18 -11 10 8 16 9 21 1 3 -5 -1 -10 -9 -10 -11 0 -18 -13 -22 -40 -4 -22 -15
-50 -25 -61 -11 -12 -19 -26 -19 -32 0 -6 -18 -6 -47 -2 -27 5 -73 9 -103 10
-63 2 -151 33 -158 55 -3 8 -1 12 2 8 4 -3 16 2 27 13 21 21 59 25 77 7 7 -7
12 -8 12 -2 0 15 45 34 81 34 17 0 32 6 35 15 4 8 13 15 21 15 10 0 12 6 8 20
-5 17 -2 20 27 22 18 0 45 0 60 -1 14 -1 29 3 33 9 4 6 10 9 13 6 3 -3 -3 -15
-13 -26z m302 -1 c26 -13 43 -28 43 -38 0 -18 29 -36 82 -51 21 -7 26 -5 21 6
-3 8 1 14 11 14 15 0 20 11 17 38 -1 6 4 12 10 12 7 0 10 -3 6 -6 -3 -3 -1
-18 4 -32 7 -17 6 -29 -1 -36 -15 -15 -12 -26 9 -26 10 0 21 -7 25 -15 6 -16
51 -16 90 1 14 5 17 4 12 -4 -11 -18 10 -14 25 5 12 14 12 15 0 9 -8 -5 -16
-3 -22 5 -6 11 -12 9 -29 -6 l-22 -20 13 27 c10 23 15 26 32 16 16 -8 22 -8
25 1 2 6 8 9 13 5 5 -3 9 -1 9 5 0 5 12 11 28 13 21 2 28 9 30 31 2 16 9 27
19 27 8 0 17 9 20 20 5 20 15 25 26 14 3 -4 -3 -18 -13 -33 -26 -36 -31 -94
-8 -99 12 -2 19 5 23 22 15 72 18 81 23 62 3 -15 10 -17 42 -12 29 4 43 1 64
-15 14 -11 24 -24 21 -29 -18 -30 104 -2 142 33 10 8 25 17 33 19 8 2 18 7 21
12 4 5 20 5 35 1 l29 -8 -27 -10 c-16 -6 -28 -16 -28 -21 0 -6 -4 -5 -9 3 -6
9 -15 11 -27 6 -18 -8 -18 -8 -1 -12 9 -3 15 -8 12 -13 -3 -5 -12 -7 -20 -3
-8 3 -15 0 -15 -6 0 -6 -13 -11 -29 -11 -32 0 -49 -16 -34 -31 5 -5 25 -2 48
6 22 8 51 14 65 14 l25 0 -22 -16 c-33 -22 -28 -33 12 -33 37 0 43 8 23 28 -9
9 -8 12 4 12 17 0 32 -26 22 -41 -3 -5 2 -9 10 -9 9 0 16 9 16 20 0 11 5 20
10 20 6 0 10 5 10 11 0 6 -9 8 -21 4 -18 -6 -19 -5 -10 13 9 17 14 19 35 9 20
-9 21 -13 10 -25 -20 -19 -17 -31 6 -25 11 3 20 9 20 12 0 4 13 6 28 3 16 -2
45 1 65 6 32 9 38 8 51 -11 10 -15 18 -18 23 -11 6 9 12 8 21 -2 11 -12 10
-14 -5 -14 -15 0 -16 -2 -3 -10 10 -6 20 -4 30 5 10 9 21 11 29 5 8 -4 20 -6
27 -3 6 2 15 -1 20 -8 5 -9 2 -10 -9 -6 -10 3 -17 2 -17 -4 0 -7 15 -9 43 -5
23 3 52 6 65 6 27 0 66 19 58 27 -3 4 1 14 10 24 15 16 14 17 -5 12 -12 -3
-21 -1 -21 6 0 14 43 14 57 0 8 -8 28 -9 59 -4 36 5 44 9 33 17 -11 8 -10 9 4
4 10 -3 23 -6 29 -6 6 0 6 -6 -2 -15 -9 -11 -9 -15 -1 -15 7 0 9 -4 6 -10 -3
-6 4 -10 17 -10 13 0 30 -5 38 -10 13 -8 12 -12 -5 -29 -23 -24 -70 -19 -61 6
5 11 1 13 -17 7 -12 -5 -52 -7 -89 -5 -71 2 -100 -13 -46 -25 48 -10 147 -25
194 -29 23 -1 51 -8 63 -15 18 -9 26 -9 38 2 14 11 15 11 11 -2 -3 -11 9 -19
46 -29 54 -15 67 -15 106 -8 79 16 89 16 115 -9 20 -19 24 -28 16 -38 -6 -7
-7 -16 -3 -21 4 -4 -5 -6 -20 -3 -38 7 -60 -9 -22 -17 16 -3 51 -13 78 -21 26
-7 65 -14 86 -14 20 0 61 -5 91 -10 35 -7 56 -7 63 0 7 7 0 10 -20 10 -16 1
-40 8 -54 16 -14 8 -17 13 -8 10 10 -3 30 1 45 9 l28 15 -25 1 c-21 1 -19 3
10 10 19 5 68 7 108 3 44 -3 78 -2 85 4 10 8 12 0 12 -34 0 -33 -4 -46 -17
-50 -10 -3 -18 -10 -18 -16 0 -6 -9 -8 -20 -5 -11 3 -22 1 -25 -4 -3 -5 -24
-1 -46 8 -28 11 -43 13 -51 5 -6 -6 -20 -7 -32 -3 -11 4 -57 8 -101 10 -44 1
-91 6 -105 11 -68 24 -141 42 -147 37 -3 -4 -21 6 -39 22 -21 19 -40 28 -53
24 -11 -3 -45 5 -77 16 -31 12 -63 20 -71 17 -7 -3 -40 1 -72 10 -69 17 -158
15 -171 -5 -4 -8 -15 -11 -23 -8 -21 8 -94 -13 -78 -22 6 -4 9 -15 5 -24 -7
-19 20 -25 31 -7 3 6 12 10 18 10 7 0 3 -7 -8 -16 -15 -11 -35 -14 -79 -10
-75 7 -106 -1 -106 -25 0 -10 -4 -19 -10 -19 -5 0 -10 4 -10 9 0 5 -33 31 -72
57 -66 44 -79 49 -143 52 -68 4 -70 4 -96 -27 l-27 -32 -63 11 c-35 6 -71 14
-79 17 -18 8 -42 12 -92 16 -21 2 -47 12 -58 22 -16 14 -23 16 -32 7 -15 -15
-55 -16 -64 -1 -3 6 -20 9 -38 6 -17 -2 -41 -1 -54 4 -13 5 -40 5 -64 0 -51
-12 -168 5 -185 26 -10 13 -15 14 -27 4 -8 -7 -23 -10 -33 -7 -10 3 -45 6 -78
7 -33 1 -66 6 -72 11 -7 6 -28 7 -48 4 -23 -5 -45 -2 -66 9 -17 9 -37 14 -45
11 -8 -3 -14 1 -14 9 0 8 -15 17 -37 21 -37 7 -37 7 -15 22 12 8 22 20 22 28
0 18 69 64 96 64 12 0 27 6 33 14 6 7 22 11 35 9 24 -5 49 18 28 25 -8 2 -8 8
1 23 16 26 68 25 124 -2z m-1347 -4 c0 -8 -4 -15 -9 -15 -13 0 -22 16 -14 24
11 11 23 6 23 -9z m1090 11 c0 -2 -7 -7 -16 -10 -8 -3 -12 -2 -9 4 6 10 25 14
25 6z m-1150 -16 c0 -5 -4 -10 -10 -10 -5 0 -10 5 -10 10 0 6 5 10 10 10 6 0
10 -4 10 -10z m-1230 -10 c-12 -7 -8 -10 15 -10 22 0 26 -3 15 -9 -8 -6 -18
-7 -24 -4 -5 3 -6 1 -2 -5 9 -14 -13 -27 -26 -14 -14 14 0 52 20 52 15 0 15
-2 2 -10z m1508 -15 c15 -14 23 -25 19 -25 -4 0 -20 11 -35 25 -15 14 -23 25
-19 25 4 0 20 -11 35 -25z m1882 15 c9 -6 10 -10 3 -10 -6 0 -19 -3 -27 -6
-12 -5 -15 -2 -10 10 7 18 13 20 34 6z m-3846 -11 c-4 -7 3 -10 17 -9 40 4 49
1 49 -15 0 -8 7 -15 16 -15 27 0 9 -24 -25 -33 -21 -5 -45 -4 -64 2 -16 6 -42
11 -57 11 -24 0 -27 3 -22 25 4 21 0 25 -19 26 -22 0 -23 1 -4 9 30 13 118 12
109 -1z m601 1 c-3 -5 -11 -10 -16 -10 -6 0 -7 5 -4 10 3 6 11 10 16 10 6 0 7
-4 4 -10z m3545 -1 c0 -5 -7 -9 -16 -9 -9 0 -29 -9 -45 -21 -32 -23 -40 -10
-10 18 20 19 71 27 71 12z m-2225 -9 c3 -5 1 -10 -5 -10 -7 0 -9 -7 -6 -17 4
-10 4 -14 0 -10 -4 4 -13 2 -21 -5 -7 -6 -17 -8 -21 -4 -4 4 1 12 11 17 9 6
17 17 17 24 0 17 16 20 25 5z m-1141 -33 c-7 -18 -24 -23 -24 -7 0 6 4 10 10
10 5 0 7 8 3 18 -4 13 -3 14 6 6 6 -6 9 -18 5 -27z m3256 23 c0 -6 -9 -18 -19
-27 -11 -9 -18 -20 -15 -25 3 -4 -1 -8 -9 -8 -26 0 -17 46 12 57 14 6 27 11
29 12 1 1 2 -4 2 -9z m-3880 -9 c0 -5 -7 -11 -15 -15 -9 -3 -15 0 -15 9 0 8 7
15 15 15 8 0 15 -4 15 -9z m2330 5 c0 -2 -11 -6 -25 -8 -13 -3 -22 -1 -19 3 5
9 44 13 44 5z m-2662 -19 c8 -10 6 -13 -9 -14 -19 -2 -25 8 -12 20 8 9 9 9 21
-6z m862 0 c0 -2 -10 -12 -21 -23 -22 -19 -22 -19 -10 4 10 18 31 31 31 19z
m30 -7 c0 -5 -5 -10 -11 -10 -5 0 -7 5 -4 10 3 6 8 10 11 10 2 0 4 -4 4 -10z
m-100 -10 c0 -3 -11 -10 -25 -17 -14 -6 -25 -7 -25 -2 0 5 5 9 11 9 5 0 8 4 5
8 -2 4 4 8 15 8 10 0 19 -3 19 -6z m3980 -4 c0 -9 -30 -14 -35 -6 -4 6 3 10
14 10 12 0 21 -2 21 -4z m-4933 -51 c-10 -19 -11 -19 -17 5 -9 32 -3 43 14 27
11 -9 11 -17 3 -32z m159 32 c4 -4 -1 -7 -12 -7 -10 0 -30 -3 -44 -6 -23 -6
-24 -6 -6 8 19 15 50 17 62 5z m380 4 c-5 -8 -56 -3 -56 5 0 2 14 4 31 4 16 0
28 -4 25 -9z m105 -8 c-5 -10 -9 -22 -9 -26 0 -14 -12 -21 -12 -8 0 14 18 51
26 51 2 0 0 -8 -5 -17z m1604 -23 c-17 -19 -45 -27 -45 -14 0 11 34 33 49 34
11 0 10 -5 -4 -20z m3138 13 c-7 -2 -19 -2 -25 0 -7 3 -2 5 12 5 14 0 19 -2
13 -5z m-5483 -8 c0 -2 -9 -9 -20 -15 -12 -6 -20 -7 -20 -1 0 5 8 12 18 14 9
3 18 5 20 6 1 0 2 -1 2 -4z m-74 -20 c-11 -8 -22 -12 -25 -9 -6 6 19 24 34 24
6 -1 1 -7 -9 -15z m943 -16 c-14 -8 -29 -3 -29 11 0 4 9 6 21 3 15 -4 17 -8 8
-14z m311 17 c0 -3 -4 -8 -10 -11 -5 -3 -10 -1 -10 4 0 6 5 11 10 11 6 0 10
-2 10 -4z m-260 -10 c0 -2 -7 -6 -15 -10 -8 -3 -15 -1 -15 4 0 6 7 10 15 10 8
0 15 -2 15 -4z m4619 -57 c13 -11 21 -22 17 -26 -3 -4 -19 6 -34 20 -16 15
-36 27 -45 27 -9 0 -17 4 -17 9 0 14 49 -5 79 -30z m-3164 13 c-3 -3 -11 0
-18 7 -9 10 -8 11 6 5 10 -3 15 -9 12 -12z m540 9 c-6 -4 -26 -11 -45 -14 -35
-6 -35 -6 -10 8 27 16 70 21 55 6z m2450 -11 c3 -5 1 -10 -4 -10 -6 0 -11 5
-11 10 0 6 2 10 4 10 3 0 8 -4 11 -10z m-125 -30 c0 -5 -5 -10 -11 -10 -5 0
-7 5 -4 10 3 6 8 10 11 10 2 0 4 -4 4 -10z m366 -33 c4 -3 -2 -10 -12 -14 -10
-3 -21 -10 -24 -15 -7 -10 -52 21 -46 31 6 9 72 8 82 -2z m98 -16 c11 -4 15
-10 10 -13 -5 -4 -18 0 -29 8 -20 15 -12 17 19 5z m297 -18 c13 -15 12 -15 -8
-4 -24 12 -29 21 -14 21 5 0 15 -7 22 -17z m652 10 c-7 -2 -19 -2 -25 0 -7 3
-2 5 12 5 14 0 19 -2 13 -5z m-2763 -13 c0 -5 -7 -10 -15 -10 -8 0 -15 5 -15
10 0 6 7 10 15 10 8 0 15 -4 15 -10z m1185 0 c-4 -6 6 -11 22 -11 18 -1 21 -3
10 -6 -14 -4 -16 -8 -6 -19 19 -23 -8 -17 -30 8 -20 21 -20 38 0 38 6 0 7 -4
4 -10z m24 -74 c10 -12 8 -13 -9 -9 -25 7 -37 23 -17 23 8 0 20 -6 26 -14z
m-2411 -3 c-16 -2 -40 -2 -55 0 -16 2 -3 4 27 4 30 0 43 -2 28 -4z m119 1 c-3
-3 -12 -4 -19 -1 -8 3 -5 6 6 6 11 1 17 -2 13 -5z m-417 -34 c-20 -13 -50 -13
-50 0 0 6 15 10 33 10 24 0 28 -3 17 -10z m4760 1 c0 -11 -39 -25 -47 -18 -3
3 -2 10 2 16 8 13 45 15 45 2z m-293 -8 c-25 -6 -11 -23 20 -23 50 0 15 -12
-46 -16 -63 -4 -69 -1 -48 20 17 17 37 24 67 24 16 0 19 -2 7 -5z m-1130 -49
c-3 -3 -12 -4 -19 -1 -8 3 -5 6 6 6 11 1 17 -2 13 -5z m1016 -1 c-7 -2 -21 -2
-30 0 -10 3 -4 5 12 5 17 0 24 -2 18 -5z m152 -13 c3 -5 1 -10 -4 -10 -6 0
-11 5 -11 10 0 6 2 10 4 10 3 0 8 -4 11 -10z m-2625 -25 c0 -17 -75 -22 -85
-5 -3 5 0 7 8 5 7 -3 24 -1 38 4 34 14 39 13 39 -4z m2793 -13 c-6 -4 47 -7
118 -7 71 0 129 -3 129 -7 0 -5 -10 -9 -22 -9 -84 -4 -170 -8 -208 -10 -25 -1
-37 -3 -27 -6 9 -2 17 -9 17 -14 0 -10 -54 -11 -120 -1 l-44 7 29 14 c17 7 46
15 65 17 19 3 37 9 38 14 2 6 11 10 20 10 11 0 13 -3 5 -8z m144 -58 c-3 -3
-12 -4 -19 -1 -8 3 -5 6 6 6 11 1 17 -2 13 -5z m-5051 -54 c3 0 14 5 25 10 15
9 19 7 19 -7 0 -13 3 -14 12 -5 14 14 50 16 64 2 9 -9 84 5 84 16 0 3 -10 3
-22 -1 -20 -5 -21 -5 -5 5 14 9 23 8 41 -3 18 -12 32 -13 66 -6 86 19 251 0
193 -22 -14 -6 -12 -8 10 -8 16 -1 26 3 22 9 -3 6 3 10 14 10 11 0 23 5 26 10
4 7 11 8 18 2 7 -6 43 -9 82 -7 38 1 78 -3 87 -9 13 -8 21 -7 30 2 17 17 158
15 181 -3 11 -7 49 -16 85 -20 91 -8 114 -14 107 -25 -3 -6 -21 -10 -38 -11
-18 0 -41 -4 -52 -9 -17 -7 -16 -9 10 -10 157 -8 195 -8 195 0 0 15 138 12
143 -2 3 -10 39 -13 140 -12 105 0 137 -3 137 -13 0 -26 40 -34 158 -30 64 3
149 11 188 18 73 13 113 8 136 -14 7 -8 26 -17 41 -21 15 -3 35 -15 45 -26 14
-17 29 -20 109 -20 79 0 93 -2 93 -16 0 -9 6 -14 13 -11 7 3 48 11 90 17 42 7
75 16 72 19 -2 4 18 8 45 8 38 1 57 7 80 26 17 15 31 30 30 34 0 20 12 43 23
43 30 0 233 -43 244 -51 7 -7 14 -6 18 1 10 16 23 12 21 -7 0 -12 7 -19 22
-21 12 -2 22 1 22 7 0 6 15 11 33 12 114 3 170 0 180 -10 8 -8 -7 -11 -60 -11
-63 0 -72 -2 -86 -24 -11 -17 -29 -26 -62 -31 -45 -6 -46 -7 -30 -25 19 -21
14 -26 -40 -35 -22 -4 -50 -14 -62 -21 -18 -11 -23 -12 -23 -2 0 15 -55 34
-127 44 -44 5 -56 3 -79 -15 -15 -11 -34 -21 -43 -21 -9 0 -36 -8 -61 -17 -25
-9 -61 -19 -80 -23 -30 -7 -32 -8 -8 -9 27 -1 48 -17 25 -19 -27 -2 -85 -20
-131 -40 -30 -14 -69 -22 -102 -22 -29 0 -56 -5 -59 -11 -4 -6 -13 -8 -20 -5
-7 2 -16 2 -19 -1 -3 -4 -16 -7 -29 -9 -12 -1 -37 -4 -54 -7 -18 -3 -35 -2
-38 3 -3 5 -11 7 -18 4 -7 -2 -38 2 -67 9 l-55 14 35 6 c108 18 122 26 99 54
-11 12 -28 14 -85 11 -78 -5 -112 -23 -88 -46 7 -7 18 -12 24 -12 6 0 8 -4 5
-10 -3 -5 -23 -10 -43 -10 -42 -1 -66 -15 -76 -48 -8 -25 -26 -30 -26 -7 0 14
-37 41 -45 33 -9 -9 9 -48 22 -48 8 0 12 -4 8 -9 -9 -16 33 -32 98 -37 79 -7
86 -14 13 -14 -53 0 -58 -2 -74 -30 -18 -31 -38 -44 -53 -34 -14 8 -11 24 6
24 8 0 15 3 15 7 0 12 -64 63 -80 63 -11 1 -10 5 6 18 13 11 20 27 18 42 -1
14 -3 31 -3 38 -1 6 -8 12 -16 12 -17 0 -20 -11 -5 -26 6 -6 -7 -8 -34 -6 -29
3 -53 -2 -69 -12 -14 -10 -32 -14 -42 -9 -18 6 -18 7 1 15 14 6 13 7 -6 2 -14
-3 -38 -5 -54 -5 -16 1 -34 -6 -40 -14 -16 -22 -125 -65 -132 -53 -8 12 -6 13
45 24 54 11 65 32 22 40 -17 4 -31 10 -31 14 0 14 46 16 59 3 7 -8 20 -12 28
-9 8 3 26 6 40 6 16 0 27 7 30 20 5 19 20 25 51 21 39 -5 -20 48 -75 66 -37
13 -42 18 -29 25 9 5 31 6 48 3 41 -10 130 -12 115 -4 -19 11 -197 42 -204 36
-3 -4 -19 1 -35 9 -16 8 -39 14 -51 12 l-22 -3 23 -23 c15 -15 30 -21 45 -18
12 3 16 3 10 0 -22 -10 -14 -24 15 -25 l27 0 -23 -12 c-17 -8 -25 -8 -30 0 -7
11 -26 16 -52 14 -12 -1 -11 -5 4 -16 11 -8 17 -17 14 -20 -3 -3 -19 6 -34 20
-16 15 -23 24 -16 20 6 -3 19 0 27 8 12 13 12 17 1 26 -16 13 -37 11 -48 -4
-5 -6 -8 -6 -8 2 0 7 8 17 18 22 14 9 13 10 -10 9 -16 -1 -28 -6 -28 -11 0 -5
-6 -4 -14 2 -10 8 -16 9 -21 1 -4 -7 -12 -7 -25 0 -23 12 -73 13 -66 1 3 -5
-8 -14 -26 -20 -43 -15 -56 -14 -32 3 23 18 17 25 -24 28 -17 1 -34 8 -36 15
-3 7 -16 12 -28 12 -13 -1 -32 2 -42 6 -14 6 -17 5 -12 -3 10 -17 -5 -15 -32
4 -12 8 -27 12 -32 9 -6 -3 -10 -2 -10 4 0 5 -15 13 -32 16 -18 4 -41 14 -50
22 -10 9 -39 16 -70 17 -37 1 -63 8 -85 24 -17 12 -45 22 -61 22 -17 0 -33 4
-36 9 -3 5 -23 12 -43 16 -21 4 -43 11 -50 16 -6 6 -22 11 -35 13 -13 1 -29 6
-36 10 -7 4 -41 7 -77 7 -36 0 -65 4 -65 10 0 16 -29 10 -39 -8 -9 -17 -10
-17 -16 0 -10 25 -42 21 -68 -8 -17 -19 -32 -25 -72 -26 -27 -1 -72 -7 -98
-15 -36 -10 -53 -11 -66 -2 -14 8 -25 7 -47 -4 -19 -9 -50 -13 -86 -11 -34 3
-59 0 -63 -7 -5 -8 -10 -8 -20 0 -10 8 -19 8 -35 0 -12 -7 -45 -11 -73 -9 -29
1 -59 0 -67 -3 -49 -19 -81 -26 -99 -21 -12 3 -21 1 -21 -5 0 -6 -9 -8 -20 -5
-11 3 -27 0 -35 -7 -8 -7 -15 -8 -15 -3 0 5 -30 8 -66 8 -58 -1 -64 0 -48 12
10 7 24 11 32 8 7 -2 10 -1 7 4 -3 5 -1 12 5 16 5 3 10 -1 10 -9 0 -21 9 -20
29 2 19 20 72 28 169 24 25 -1 41 -6 37 -12 -3 -5 7 -3 22 5 15 8 36 12 46 9
13 -4 29 4 48 22 25 24 32 27 49 16 24 -14 140 -16 140 -2 0 6 7 10 15 10 8 0
15 7 15 15 0 11 9 14 34 11 25 -4 36 -1 40 11 5 11 2 14 -10 9 -10 -4 -14 -1
-12 6 3 7 20 14 39 16 19 2 39 8 44 13 7 7 11 3 13 -10 2 -12 6 -21 8 -21z
m2884 22 c0 -5 -11 -14 -24 -20 -25 -11 -66 -6 -66 9 0 13 14 11 28 -3 9 -9
12 -9 12 1 0 7 4 10 8 7 4 -2 14 -1 22 5 19 11 20 11 20 1z m-489 -52 c5 0 12
7 15 15 4 8 11 15 17 15 5 0 2 -9 -7 -19 -10 -11 -15 -25 -11 -30 11 -18 -3
-12 -24 11 -11 11 -17 26 -13 32 4 7 8 4 10 -6 2 -10 8 -18 13 -18z m2786 24
c-3 -3 -12 -4 -19 -1 -8 3 -5 6 6 6 11 1 17 -2 13 -5z m-2830 -20 c-3 -3 -12
-4 -19 -1 -8 3 -5 6 6 6 11 1 17 -2 13 -5z m2778 -22 c-7 -8 -35 7 -35 18 0 6
7 6 20 -2 10 -7 17 -14 15 -16z m-1665 -52 c0 -5 -7 -7 -15 -4 -8 4 -15 8 -15
10 0 2 7 4 15 4 8 0 15 -4 15 -10z m-40 -10 c18 -6 7 -8 -42 -9 -37 -1 -70 4
-73 9 -7 12 78 12 115 0z m-4232 -45 c2 -31 -32 -35 -48 -5 -9 16 -8 18 5 14
8 -4 15 -1 15 5 0 23 26 10 28 -14z m-97 -7 c0 -10 2 -10 5 -1 3 7 12 9 20 6
24 -9 16 -18 -19 -20 -24 -2 -34 1 -34 12 0 18 27 20 28 3z m364 -8 c-3 -5
-11 -10 -16 -10 -6 0 -7 5 -4 10 3 6 11 10 16 10 6 0 7 -4 4 -10z m-425 -24
c0 -8 -6 -16 -13 -19 -8 -3 -13 3 -13 14 0 11 6 19 13 19 7 0 13 -6 13 -14z
m580 -6 c0 -5 -6 -10 -14 -10 -8 0 -18 5 -21 10 -3 6 3 10 14 10 12 0 21 -4
21 -10z m-200 -10 c0 -5 -5 -10 -11 -10 -5 0 -7 5 -4 10 3 6 8 10 11 10 2 0 4
-4 4 -10z m1150 6 c0 -11 -19 -15 -25 -6 -3 5 1 10 9 10 9 0 16 -2 16 -4z
m3617 -2 c-3 -3 -12 -4 -19 -1 -8 3 -5 6 6 6 11 1 17 -2 13 -5z m-5292 -24
c-10 -11 -30 -20 -45 -20 -15 0 -40 -10 -55 -22 -19 -14 -30 -18 -32 -11 -3 7
-11 9 -19 6 -8 -3 -14 0 -14 6 0 6 13 11 28 11 16 0 37 7 48 15 10 8 33 15 51
15 17 0 35 5 38 10 3 6 9 10 12 10 3 0 -2 -9 -12 -20z m1750 10 c3 -5 1 -10
-4 -10 -6 0 -11 5 -11 10 0 6 2 10 4 10 3 0 8 -4 11 -10z m-1711 -24 c-10 -8
-21 -12 -24 -10 -5 6 21 24 34 24 6 0 1 -6 -10 -14z m253 8 c-3 -3 -12 -4 -19
-1 -8 3 -5 6 6 6 11 1 17 -2 13 -5z m4383 -4 c0 -5 -5 -10 -11 -10 -5 0 -7 5
-4 10 3 6 8 10 11 10 2 0 4 -4 4 -10z m-4573 -6 c-3 -3 -12 -4 -19 -1 -8 3 -5
6 6 6 11 1 17 -2 13 -5z m4215 -13 c-8 -4 -12 -12 -10 -17 1 -5 -7 -10 -20
-12 -23 -4 -23 -3 -5 16 10 11 25 21 33 21 12 1 12 -1 2 -8z m686 -5 c3 -3 -6
-6 -21 -6 -14 0 -28 4 -31 9 -6 9 42 6 52 -3z m-5196 -21 c0 -5 4 -18 9 -27 6
-12 6 -18 0 -18 -5 0 -13 10 -17 23 -4 12 -12 26 -18 30 -7 5 -4 7 7 5 10 -2
18 -7 19 -13z m305 -1 c-3 -3 -12 -4 -19 -1 -8 3 -5 6 6 6 11 1 17 -2 13 -5z
m-497 -14 c0 -5 -7 -7 -15 -4 -8 4 -15 8 -15 10 0 2 7 4 15 4 8 0 15 -4 15
-10z m45 0 c3 -5 1 -10 -4 -10 -6 0 -11 5 -11 10 0 6 2 10 4 10 3 0 8 -4 11
-10z m325 6 c0 -7 -63 -37 -68 -32 -2 3 9 11 25 20 28 15 43 19 43 12z m80 0
c0 -3 -4 -8 -10 -11 -5 -3 -10 -1 -10 4 0 6 5 11 10 11 6 0 10 -2 10 -4z m933
-13 c-7 -2 -19 -2 -25 0 -7 3 -2 5 12 5 14 0 19 -2 13 -5z m712 -11 c-3 -3
-11 0 -18 7 -9 10 -8 11 6 5 10 -3 15 -9 12 -12z m4535 8 c0 -5 -2 -10 -4 -10
-3 0 -8 5 -11 10 -3 6 -1 10 4 10 6 0 11 -4 11 -10z m-6205 -18 c-3 -3 -11 0
-18 7 -9 10 -8 11 6 5 10 -3 15 -9 12 -12z m288 11 c-7 -2 -19 -2 -25 0 -7 3
-2 5 12 5 14 0 19 -2 13 -5z m1884 1 c-3 -3 -12 -4 -19 -1 -8 3 -5 6 6 6 11 1
17 -2 13 -5z m3228 -14 c-10 -11 -25 -20 -33 -20 -9 0 -6 7 9 20 31 25 47 26
24 0z m839 -1 c-31 -12 -39 -10 -19 5 11 8 24 12 29 8 5 -3 1 -9 -10 -13z
m-5060 -11 c-3 -4 -12 -8 -20 -8 -8 0 -14 4 -14 8 0 4 9 8 19 8 11 0 17 -4 15
-8z m4988 -20 c-9 -9 -12 -7 -12 12 0 19 3 21 12 12 9 -9 9 -15 0 -24z m-6642
9 c-14 -7 -37 -20 -51 -30 -27 -18 -109 -29 -109 -15 0 4 11 8 24 8 24 0 51
22 40 33 -3 3 2 4 13 1 10 -2 32 0 48 5 42 13 65 12 35 -2z m4715 -7 c-3 -5
-13 -10 -21 -10 -8 0 -12 5 -9 10 3 6 13 10 21 10 8 0 12 -4 9 -10z m-2630
-20 c-3 -5 -11 -10 -16 -10 -6 0 -7 5 -4 10 3 6 11 10 16 10 6 0 7 -4 4 -10z
m-558 -6 c-3 -3 -12 -4 -19 -1 -8 3 -5 6 6 6 11 1 17 -2 13 -5z m923 -15 c0
-6 -4 -7 -10 -4 -5 3 -10 11 -10 16 0 6 5 7 10 4 6 -3 10 -11 10 -16z m2155 1
c3 -5 2 -10 -4 -10 -5 0 -13 5 -16 10 -3 6 -2 10 4 10 5 0 13 -4 16 -10z m118
-31 c5 -17 1 -18 -36 -13 -53 8 -71 21 -54 38 17 18 84 0 90 -25z m-5029 16
c4 -10 -1 -15 -15 -15 -17 0 -18 2 -7 15 16 18 15 18 22 0z m3356 11 c0 -11
-19 -15 -25 -6 -3 5 1 10 9 10 9 0 16 -2 16 -4z m3082 -20 c11 -16 0 -25 -24
-18 -17 4 -20 2 -15 -11 5 -14 -1 -17 -36 -17 -34 -1 -38 -3 -24 -11 9 -6 25
-9 35 -8 48 4 72 -2 72 -18 0 -12 -3 -14 -8 -6 -4 7 -13 9 -21 4 -7 -5 -34 -4
-59 1 -26 4 -60 5 -77 2 -33 -7 -79 -8 -110 -3 -12 3 -19 -1 -17 -8 2 -14 -8
-16 -70 -17 -22 -1 -40 4 -43 12 -3 8 6 12 25 12 42 0 46 18 5 26 -19 3 -35
10 -35 15 0 12 -47 12 -55 -1 -3 -5 7 -16 22 -24 28 -15 28 -15 -17 -10 -35 4
-52 0 -75 -15 -31 -22 -28 -28 6 -11 12 7 25 7 35 2 25 -14 5 -21 -88 -31 -45
-5 -96 -14 -112 -18 l-29 -9 39 -16 c22 -9 50 -20 64 -25 22 -9 18 -11 -40
-21 -93 -16 -206 -17 -224 -3 -15 13 -82 6 -91 -9 -3 -5 -14 -6 -25 -3 -11 3
-17 9 -14 14 3 5 -9 6 -26 2 -17 -3 -41 -1 -53 5 -32 16 -180 51 -189 46 -18
-11 -6 -24 35 -35 23 -7 49 -18 57 -24 8 -7 26 -9 40 -6 22 6 106 -9 130 -24
5 -3 7 -12 4 -20 -4 -8 1 -18 10 -21 9 -3 13 -10 10 -15 -8 -14 -36 -7 -55 13
-12 13 -23 15 -45 9 -39 -10 -37 -32 6 -54 31 -15 36 -15 46 -2 14 19 25 20
18 1 -6 -15 29 -32 58 -27 9 1 19 -3 23 -9 3 -5 -2 -10 -14 -10 -11 0 -23 -4
-26 -10 -3 -5 -13 -10 -22 -10 -13 0 -13 3 -3 15 10 12 9 15 -7 15 -11 0 -23
-3 -27 -7 -14 -14 -41 -11 -58 7 -11 12 -25 16 -40 12 -20 -5 -21 -6 -3 -12
19 -7 19 -7 -2 -18 -29 -16 -36 -15 -29 3 4 11 -1 15 -19 15 -16 0 -25 -6 -25
-15 0 -20 -10 -19 -40 5 -32 25 -43 25 -65 0 -12 -14 -22 -17 -30 -10 -6 5
-16 6 -20 2 -5 -4 -6 0 -2 9 7 22 -28 38 -70 32 -42 -7 -44 13 -2 22 20 5 34
3 39 -4 4 -7 31 -13 61 -13 30 -1 59 -5 66 -10 17 -13 155 2 150 16 -2 6 -12
13 -23 15 -24 4 -37 23 -21 33 6 4 8 10 4 14 -4 4 -15 -1 -26 -10 -11 -10 -22
-13 -25 -8 -3 6 0 12 8 15 7 3 16 15 19 26 5 19 1 21 -39 21 -25 0 -61 -7 -81
-15 -19 -8 -37 -15 -39 -15 -2 0 -4 7 -4 15 0 8 -4 15 -8 15 -10 0 -9 41 1 58
5 6 19 12 31 12 13 0 40 7 60 15 20 9 40 14 44 11 4 -2 16 2 27 10 16 12 17
16 6 23 -8 5 -19 8 -25 6 -6 -2 -26 -6 -44 -9 -31 -5 -32 -4 -26 22 4 15 11
32 16 37 6 6 7 4 3 -7 -6 -14 -2 -15 32 -7 21 4 47 6 57 3 14 -5 18 -2 13 8
-4 12 1 14 21 11 15 -3 35 -5 45 -6 9 -1 17 -5 17 -9 0 -12 -38 -10 -45 2 -6
10 -45 -24 -45 -40 0 -16 27 -30 60 -31 32 -1 33 -2 10 -9 -23 -7 -23 -9 -2
-14 4 -1 24 -7 45 -14 21 -6 45 -8 53 -5 8 3 21 0 29 -7 10 -9 15 -9 15 -1 0
6 6 11 14 11 8 0 16 5 18 11 2 6 19 14 38 19 29 6 30 8 10 9 -39 2 -56 16 -41
34 9 12 9 16 -1 20 -7 2 -10 8 -6 12 4 4 14 1 22 -7 11 -12 12 -18 3 -27 -8
-8 -5 -11 14 -11 41 0 73 12 58 21 -8 4 -10 11 -6 15 4 4 13 2 19 -4 7 -7 16
-12 22 -12 6 0 5 5 -2 12 -25 25 -13 36 38 32 35 -2 52 1 56 9 3 8 22 13 47
14 54 0 127 12 151 25 14 8 17 7 11 -3 -6 -9 -4 -11 7 -6 9 3 19 3 22 0 11
-11 116 -14 116 -3 0 5 -6 10 -12 11 -7 0 -4 4 7 8 11 4 47 5 80 1 67 -8 99
-5 135 9 30 11 132 2 142 -13z m-4052 -7 c0 -14 -17 -10 -23 5 -4 10 -1 13 9
9 7 -3 14 -9 14 -14z m2315 4 c22 3 49 1 60 -3 18 -7 16 -10 -15 -21 -19 -7
-38 -12 -42 -11 -5 1 -8 -3 -8 -9 0 -7 10 -9 25 -7 29 6 31 2 10 -18 -13 -13
-18 -13 -45 1 -32 17 -50 13 -50 -10 0 -20 -16 -26 -42 -16 -13 5 -32 12 -43
16 -18 6 -18 8 8 18 l28 12 -20 22 c-33 35 -26 41 37 31 31 -5 75 -7 97 -5z
m1355 7 c0 -5 -12 -10 -27 -9 -25 0 -26 1 -8 9 27 12 35 12 35 0z m-330 -14
c0 -2 -7 -7 -16 -10 -8 -3 -12 -2 -9 4 6 10 25 14 25 6z m-5822 -22 c-9 -9
-31 -18 -50 -20 -18 -2 -51 -13 -73 -23 -74 -37 -120 -54 -148 -56 -15 -2 -37
-11 -49 -21 -12 -11 -18 -13 -14 -6 4 6 2 12 -3 12 -6 0 -11 5 -11 11 0 5 4 8
10 4 5 -3 17 -2 27 3 10 5 32 16 48 24 17 9 48 19 69 22 21 4 48 13 60 21 12
7 45 16 73 20 29 4 55 11 59 16 3 5 8 9 12 9 3 0 -1 -7 -10 -16z m2776 -5 c-3
-5 -12 -9 -20 -9 -17 0 -19 -17 -2 -22 12 -4 -46 -38 -64 -38 -18 0 -6 21 18
30 14 6 23 14 20 19 -12 19 5 38 29 33 14 -2 22 -8 19 -13z m-2240 2 c3 -5 16
-7 29 -4 18 4 19 3 7 -6 -21 -15 -39 -14 -56 4 -14 13 -14 15 0 15 8 0 17 -4
20 -9z m2130 -7 c10 -25 -1 -29 -14 -5 -6 12 -7 21 -1 21 5 0 12 -7 15 -16z
m681 6 c3 -5 1 -10 -4 -10 -6 0 -11 5 -11 10 0 6 2 10 4 10 3 0 8 -4 11 -10z
m901 -10 c0 -11 -3 -20 -7 -20 -4 0 -9 9 -12 20 -3 12 0 20 7 20 6 0 12 -9 12
-20z m2764 -24 c0 -9 -41 8 -52 22 -11 13 -8 12 20 -2 17 -9 32 -18 32 -20z
m-6840 15 c0 -5 -17 -16 -37 -25 -21 -9 -51 -25 -68 -35 -37 -24 -46 -25 -38
-5 4 12 0 15 -17 12 -28 -4 -39 -28 -13 -29 10 -1 3 -5 -16 -9 -19 -5 -40 -6
-48 -3 -7 3 -13 0 -13 -7 0 -6 5 -8 12 -4 7 4 8 3 4 -4 -10 -16 -33 -15 -39 1
-4 9 -8 9 -16 -2 -7 -11 -5 -18 7 -28 9 -7 12 -13 6 -13 -17 0 -37 27 -29 40
4 6 -7 10 -27 11 -26 0 -20 4 32 18 36 10 88 24 115 32 28 7 52 17 55 21 3 4
15 9 25 11 11 2 27 7 35 10 14 5 43 13 63 16 4 0 7 -3 7 -8z m55 -1 c-3 -5
-11 -10 -16 -10 -6 0 -7 5 -4 10 3 6 11 10 16 10 6 0 7 -4 4 -10z m4839 -33
c-11 -6 -20 -3 -29 10 -22 28 -17 34 14 15 24 -14 27 -18 15 -25z m501 33 c3
-5 1 -10 -4 -10 -6 0 -11 5 -11 10 0 6 2 10 4 10 3 0 8 -4 11 -10z m-2760 -10
c3 -5 -3 -10 -15 -10 -12 0 -18 5 -15 10 3 6 10 10 15 10 5 0 12 -4 15 -10z
m-1035 -4 c0 -3 -4 -8 -10 -11 -5 -3 -10 -1 -10 4 0 6 5 11 10 11 6 0 10 -2
10 -4z m93 -8 c3 -9 -10 -13 -42 -15 l-46 -1 35 13 c45 17 47 17 53 3z m1327
-4 c0 -2 -7 -4 -15 -4 -8 0 -15 4 -15 10 0 5 7 7 15 4 8 -4 15 -8 15 -10z
m2018 -14 c12 0 13 -3 4 -12 -9 -9 -15 -8 -26 7 -8 11 -11 24 -8 30 4 5 8 2
10 -7 2 -10 11 -18 20 -18z m309 24 c-3 -3 -12 -4 -19 -1 -8 3 -5 6 6 6 11 1
17 -2 13 -5z m-5333 -19 c-10 -8 -23 -15 -28 -15 -6 0 -1 7 10 15 10 8 23 15
28 15 6 0 1 -7 -10 -15z m132 6 c-4 -5 0 -12 6 -14 7 -3 0 -6 -17 -6 -29 0
-29 0 -11 14 23 17 30 19 22 6z m1611 3 c-3 -3 -12 -4 -19 -1 -8 3 -5 6 6 6
11 1 17 -2 13 -5z m2646 -17 c-24 -19 -25 -19 -44 -1 -18 19 -18 19 26 20 l43
1 -25 -20z m1012 13 c3 -5 1 -10 -4 -10 -6 0 -11 5 -11 10 0 6 2 10 4 10 3 0
8 -4 11 -10z m-5165 -12 c0 -4 -12 -8 -26 -8 -14 0 -23 4 -19 9 6 11 45 10 45
-1z m2827 -8 c2 -21 -11 -27 -22 -10 -7 11 2 30 13 30 4 0 8 -9 9 -20z m958
-1 c-27 -11 -57 -27 -66 -35 -19 -17 -51 -18 -67 -2 -19 19 -14 24 18 22 17
-1 30 2 30 6 0 5 24 13 53 18 80 15 87 13 32 -9z m-2208 5 c-3 -3 -12 -4 -19
-1 -8 3 -5 6 6 6 11 1 17 -2 13 -5z m1143 -9 c-6 -8 -9 -18 -7 -22 7 -11 -79
-11 -89 0 -4 4 0 7 9 7 10 0 17 5 17 11 0 6 8 8 19 4 11 -3 22 -1 26 5 3 5 13
10 22 10 12 0 13 -3 3 -15z m1300 -3 c-17 -7 -35 -10 -40 -7 -6 3 -7 -1 -4
-10 5 -11 2 -14 -12 -8 -11 4 -15 3 -11 -4 5 -8 -1 -7 -17 0 -14 7 -27 19 -29
27 -3 13 8 16 70 15 70 0 73 -1 43 -13z m1675 7 c12 -19 -5 -23 -22 -6 -16 16
-16 17 -1 17 9 0 20 -5 23 -11z m-5068 -5 c-3 -3 -12 -4 -19 -1 -8 3 -5 6 6 6
11 1 17 -2 13 -5z m2513 -4 c0 -5 -5 -10 -11 -10 -5 0 -7 5 -4 10 3 6 8 10 11
10 2 0 4 -4 4 -10z m-3360 -4 c0 -3 -4 -8 -10 -11 -5 -3 -10 -1 -10 4 0 6 5
11 10 11 6 0 10 -2 10 -4z m4114 -12 c3 -8 2 -12 -4 -9 -6 3 -10 10 -10 16 0
14 7 11 14 -7z m-4507 0 c-3 -3 -12 -4 -19 -1 -8 3 -5 6 6 6 11 1 17 -2 13 -5z
m3773 -4 c0 -5 -5 -10 -11 -10 -5 0 -7 5 -4 10 3 6 8 10 11 10 2 0 4 -4 4 -10z
m-3952 -27 c-9 -10 -13 -24 -11 -31 4 -11 1 -12 -16 -3 -28 16 -26 27 7 44 33
16 40 13 20 -10z m5139 11 c-3 -3 -12 -4 -19 -1 -8 3 -5 6 6 6 11 1 17 -2 13
-5z m313 -9 c7 -9 18 -14 25 -12 6 3 12 -4 12 -15 2 -18 0 -19 -22 -4 -31 20
-44 20 -67 -1 -20 -18 -25 -5 -5 16 10 11 9 13 -6 8 -11 -4 -16 -3 -12 4 4 5
16 7 27 3 14 -4 18 -2 14 5 -11 17 20 13 34 -4z m-1825 -13 c-3 -3 -11 0 -18
7 -9 10 -8 11 6 5 10 -3 15 -9 12 -12z m3166 7 c20 1 46 3 57 6 11 2 26 -3 32
-10 6 -8 24 -17 40 -20 33 -7 56 -30 41 -40 -6 -3 -21 3 -33 14 -22 21 -78 29
-78 11 0 -5 -7 -10 -16 -10 -8 0 -12 5 -8 11 7 13 -15 31 -29 22 -4 -2 -3 -11
4 -19 9 -11 8 -15 -6 -20 -12 -5 -24 2 -39 21 -20 24 -23 25 -35 11 -9 -11
-22 -14 -38 -9 -19 4 -24 2 -21 -8 3 -9 18 -13 37 -12 31 1 31 0 16 -17 -15
-16 -19 -17 -43 -4 -31 16 -56 18 -47 5 3 -5 1 -12 -4 -15 -5 -3 -12 1 -15 10
-3 9 -12 14 -20 11 -17 -7 -56 19 -55 36 0 9 2 9 6 0 5 -15 53 -18 53 -4 0 13
64 33 82 26 9 -4 19 -1 23 5 4 7 17 9 34 4 14 -3 42 -6 62 -5z m-6698 -36
c-21 -22 -38 -31 -49 -26 -11 4 -22 -1 -30 -12 -8 -10 -14 -14 -14 -9 0 15 22
34 40 34 8 0 26 10 40 21 l25 20 -25 -6 c-17 -4 -21 -3 -11 3 7 5 23 9 35 8
20 -1 20 -3 -11 -33z m4705 16 c37 -1 82 3 100 9 43 14 41 -1 -3 -16 -25 -10
-32 -17 -28 -29 4 -10 2 -14 -4 -10 -6 4 -13 1 -16 -5 -3 -10 -9 -8 -24 5 -21
19 -53 22 -68 8 -12 -12 -105 4 -120 20 -7 9 -1 10 25 5 22 -4 30 -3 21 3 -23
15 -3 31 25 20 14 -5 56 -10 92 -10z m-4863 1 c3 -5 2 -10 -4 -10 -5 0 -13 5
-16 10 -3 6 -2 10 4 10 5 0 13 -4 16 -10z m468 3 c-7 -2 -19 -2 -25 0 -7 3 -2
5 12 5 14 0 19 -2 13 -5z m1412 -3 c-3 -5 -11 -10 -16 -10 -6 0 -7 5 -4 10 3
6 11 10 16 10 6 0 7 -4 4 -10z m1185 0 c0 -5 -5 -10 -11 -10 -5 0 -7 5 -4 10
3 6 8 10 11 10 2 0 4 -4 4 -10z m314 -22 c-4 -6 -10 -5 -15 3 -14 22 -10 33 6
19 8 -7 12 -17 9 -22z m2046 25 c-1 -9 -50 -47 -50 -39 0 5 41 46 47 46 2 0 3
-3 3 -7z m-1880 -7 c0 -3 -4 -8 -10 -11 -5 -3 -10 -1 -10 4 0 6 5 11 10 11 6
0 10 -2 10 -4z m1020 0 c0 -11 -19 -15 -25 -6 -3 5 1 10 9 10 9 0 16 -2 16 -4z
m-4607 -13 c-7 -2 -19 -2 -25 0 -7 3 -2 5 12 5 14 0 19 -2 13 -5z m1077 3 c0
-2 -7 -7 -16 -10 -8 -3 -12 -2 -9 4 6 10 25 14 25 6z m2580 0 c0 -9 -30 -14
-35 -6 -4 6 3 10 14 10 12 0 21 -2 21 -4z m3460 -16 c0 -5 -7 -10 -15 -10 -8
0 -15 5 -15 10 0 6 7 10 15 10 8 0 15 -4 15 -10z m-2974 -18 c11 -6 13 -11 5
-16 -6 -4 -11 -3 -11 1 0 5 -23 10 -50 11 -40 2 -52 -2 -57 -15 -4 -10 -18
-30 -32 -45 -25 -26 -27 -26 -59 -13 -32 14 -38 40 -7 28 9 -3 32 3 53 13 l37
19 -32 3 c-36 4 -44 17 -15 26 25 7 149 -1 168 -12z m479 8 c4 -6 -5 -10 -19
-10 -14 0 -26 5 -26 10 0 6 9 10 19 10 11 0 23 -4 26 -10z m115 -10 c0 -14
-49 -18 -54 -4 -2 6 -3 14 0 17 7 7 54 -4 54 -13z m490 10 c0 -5 -2 -10 -4
-10 -3 0 -8 5 -11 10 -3 6 -1 10 4 10 6 0 11 -4 11 -10z m300 0 c0 -5 -4 -10
-10 -10 -5 0 -10 5 -10 10 0 6 5 10 10 10 6 0 10 -4 10 -10z m-5517 -25 c-3
-9 -8 -14 -10 -11 -3 3 -2 9 2 15 9 16 15 13 8 -4z m82 -4 c-3 -6 -11 -11 -17
-11 -6 0 -6 6 2 15 14 17 26 13 15 -4z m2995 -1 c-24 -15 -37 -11 -16 5 11 8
22 12 25 9 3 -3 -1 -9 -9 -14z m1948 2 c2 -7 -8 -16 -22 -22 -14 -5 -26 -13
-26 -18 0 -5 -13 -7 -29 -4 -20 3 -28 8 -24 18 3 9 -2 14 -13 14 -16 0 -16 2
-4 10 8 5 17 6 20 2 3 -4 22 -8 43 -9 31 -1 37 2 33 14 -4 9 -1 13 6 11 6 -2
14 -10 16 -16z m297 8 c-3 -5 -10 -10 -16 -10 -5 0 -9 5 -9 10 0 6 7 10 16 10
8 0 12 -4 9 -10z m-2386 -19 c-13 -11 -26 -17 -28 -15 -5 5 30 33 43 34 4 0
-2 -9 -15 -19z m624 12 c-18 -7 -16 -23 2 -23 8 0 15 5 15 10 0 6 5 10 11 10
8 0 8 -5 -1 -15 -12 -14 -80 -22 -80 -9 0 11 34 33 50 33 10 0 11 -2 3 -6z
m1327 3 c0 -3 -4 -8 -10 -11 -5 -3 -10 -1 -10 4 0 6 5 11 10 11 6 0 10 -2 10
-4z m358 -17 c2 -5 17 -9 33 -9 16 0 29 -4 29 -8 0 -10 -51 -13 -96 -6 -26 4
-31 8 -27 25 5 16 11 19 32 14 14 -4 28 -11 29 -16z m1082 5 c0 -12 -6 -15
-25 -10 -14 4 -25 2 -25 -4 0 -16 -17 -12 -24 6 -5 13 0 16 29 12 19 -2 35 0
35 4 0 4 2 8 5 8 3 0 5 -7 5 -16z m-2590 -4 c0 -5 -4 -10 -9 -10 -5 0 -18 -3
-28 -6 -16 -6 -16 -5 2 9 23 19 35 21 35 7z m930 -11 c0 -9 -6 -19 -12 -22
-18 -6 -5 -17 27 -23 15 -3 34 -12 42 -20 14 -13 13 -14 -10 -9 -14 4 -28 2
-32 -5 -4 -6 -15 -8 -25 -5 -10 3 -21 1 -25 -5 -7 -12 -68 -12 -105 0 -20 6
-13 8 30 10 41 1 50 4 35 10 -11 5 -37 9 -57 9 -20 1 -39 5 -42 10 -8 13 28
20 48 9 11 -6 16 -5 16 3 0 6 7 8 16 5 8 -3 13 -2 10 3 -3 5 6 12 20 15 19 5
23 10 16 19 -8 9 -3 12 19 13 21 1 29 -3 29 -17z m-292 2 c9 -5 26 -13 37 -16
32 -11 4 -16 -44 -7 -25 4 -46 13 -49 20 -4 14 30 16 56 3z m1845 -1 c7 0 5
-5 -5 -10 -19 -12 -51 -3 -42 12 3 5 13 7 21 4 8 -3 20 -6 26 -6z m-6323 -10
c0 -5 -5 -10 -11 -10 -5 0 -7 5 -4 10 3 6 8 10 11 10 2 0 4 -4 4 -10z m3585 0
c3 -5 -1 -10 -9 -10 -9 0 -16 5 -16 10 0 6 4 10 9 10 6 0 13 -4 16 -10z m765
-2 c0 -4 -14 -15 -30 -25 -28 -16 -29 -19 -14 -30 16 -11 14 -14 -17 -27 -37
-15 -119 -11 -119 6 0 5 10 13 23 18 l22 9 -23 0 c-15 1 -21 5 -16 13 4 6 -2
17 -12 25 -17 13 -17 14 10 7 18 -4 27 -3 23 3 -4 6 23 10 73 9 44 -1 80 -4
80 -8z m-4392 -12 c-7 -8 -15 -12 -17 -11 -5 6 10 25 20 25 5 0 4 -6 -3 -14z
m2692 4 c0 -5 -2 -10 -4 -10 -3 0 -8 5 -11 10 -3 6 -1 10 4 10 6 0 11 -4 11
-10z m297 -16 c1 -5 -14 -17 -35 -27 l-37 -17 25 21 c14 12 24 26 22 31 -1 6
3 8 10 6 6 -2 13 -8 15 -14z m583 6 c0 -5 -5 -10 -11 -10 -5 0 -7 5 -4 10 3 6
8 10 11 10 2 0 4 -4 4 -10z m197 -14 c-2 -6 -20 -12 -41 -13 -36 -1 -37 0 -19
16 19 19 66 16 60 -3z m151 7 c-14 -14 -21 -14 -40 -4 -13 6 -15 9 -6 7 10 -3
20 -1 23 4 4 6 14 10 23 10 15 0 15 -1 0 -17z m72 7 c0 -5 -4 -10 -10 -10 -5
0 -10 -7 -10 -15 0 -8 9 -15 19 -15 11 0 23 -4 26 -10 4 -6 -10 -10 -35 -10
-50 0 -62 21 -29 50 27 22 39 25 39 10z m1695 -8 c-3 -3 -11 0 -18 7 -9 10 -8
11 6 5 10 -3 15 -9 12 -12z m1820 -4 c-17 -4 -37 -5 -45 -2 -20 9 28 22 55 15
17 -4 15 -6 -10 -13z m215 2 c8 -5 11 -10 5 -10 -5 0 -17 5 -25 10 -8 5 -10
10 -5 10 6 0 17 -5 25 -10z m-2670 -10 c12 -8 12 -10 -5 -11 -11 0 -14 -3 -7
-6 6 -2 9 -10 5 -16 -4 -7 -8 -16 -8 -21 0 -21 -22 -15 -34 10 -7 16 -17 24
-26 20 -8 -3 -17 -1 -20 4 -4 6 7 10 24 10 16 0 33 5 36 10 8 12 16 12 35 0z
m2290 1 c0 -5 -9 -11 -20 -14 -22 -6 -28 8 -7 16 19 8 27 8 27 -2z m-3775 -11
c-3 -5 -12 -10 -18 -10 -7 0 -6 4 3 10 19 12 23 12 15 0z m1845 0 c-20 -13
-53 -13 -45 0 3 6 18 10 33 10 21 0 24 -2 12 -10z m1864 1 c12 -5 1 -7 -32 -8
-27 0 -58 -6 -68 -12 -17 -11 -16 -12 8 -8 15 2 25 0 22 -4 -3 -5 -12 -9 -21
-9 -13 0 -13 -3 -3 -15 14 -16 21 -15 -135 -21 -138 -6 -240 -17 -253 -27 -10
-8 -16 -7 -22 2 -5 9 -19 11 -48 6 -26 -4 -42 -2 -47 5 -5 8 -11 5 -20 -7 -13
-17 -14 -17 -21 0 -9 24 -3 28 45 34 22 3 38 9 35 14 -2 4 8 8 23 8 118 0 169
4 176 14 4 8 10 9 15 2 8 -11 8 -11 117 -1 44 5 85 12 90 16 23 18 105 25 139
11z m176 -6 c7 -8 8 -15 2 -15 -5 0 -15 7 -22 15 -7 8 -8 15 -2 15 5 0 15 -7
22 -15z m-2265 -35 c-7 -11 -48 -5 -53 8 -2 7 3 12 12 12 9 0 16 6 16 13 1 7
7 4 15 -7 8 -10 12 -22 10 -26z m772 34 c-3 -3 -12 -4 -19 -1 -8 3 -5 6 6 6
11 1 17 -2 13 -5z m1773 -4 c0 -5 -2 -10 -4 -10 -3 0 -8 5 -11 10 -3 6 -1 10
4 10 6 0 11 -4 11 -10z m-7660 -4 c0 -2 -7 -7 -16 -10 -8 -3 -12 -2 -9 4 6 10
25 14 25 6z m3020 -11 c-7 -8 -17 -15 -22 -15 -11 0 14 29 26 30 5 0 3 -7 -4
-15z m620 -16 c0 -5 -9 -9 -20 -9 -14 0 -18 -5 -13 -16 5 -14 3 -15 -15 -5
-28 15 -32 14 -26 -4 4 -9 0 -15 -10 -15 -14 0 -20 -12 -17 -32 0 -5 -5 -8
-13 -8 -19 0 -33 23 -18 28 7 2 10 8 6 13 -3 5 0 9 7 9 7 0 9 3 6 7 -14 13 52
50 83 45 16 -2 30 -8 30 -13z m125 11 c3 -5 -1 -10 -9 -10 -8 0 -18 5 -21 10
-3 6 1 10 9 10 8 0 18 -4 21 -10z m3530 -10 c-13 -14 -25 -18 -44 -14 -47 11
-50 27 -3 21 23 -3 42 -1 42 4 0 5 5 9 12 9 6 0 3 -9 -7 -20z m-4930 0 c-3 -5
-11 -10 -16 -10 -6 0 -7 5 -4 10 3 6 11 10 16 10 6 0 7 -4 4 -10z m1705 0 c0
-12 -43 -23 -67 -17 -10 3 -4 5 15 6 17 0 32 6 32 11 0 6 5 10 10 10 6 0 10
-4 10 -10z m678 -19 c-16 -27 -58 -34 -58 -10 0 17 16 25 53 28 14 1 15 -2 5
-18z m-4428 -1 c0 -5 -5 -10 -11 -10 -5 0 -7 5 -4 10 3 6 8 10 11 10 2 0 4 -4
4 -10z m125 0 c-3 -5 -11 -10 -16 -10 -6 0 -7 5 -4 10 3 6 11 10 16 10 6 0 7
-4 4 -10z m1863 1 c10 -6 10 -10 -3 -21 -13 -11 -14 -10 -9 5 6 14 3 16 -16
10 -15 -5 -20 -4 -16 4 8 13 26 14 44 2z m2632 -23 c0 -6 -7 -5 -15 2 -8 7
-15 17 -15 22 0 6 7 5 15 -2 8 -7 15 -17 15 -22z m-4740 17 c0 -2 -10 -9 -22
-15 -22 -11 -22 -10 -4 4 21 17 26 19 26 11z m2635 -5 c16 -6 14 -8 -12 -7
-18 0 -30 4 -27 9 6 10 12 9 39 -2z m669 -2 c-7 -11 -54 -10 -54 1 0 5 13 9
30 9 16 -1 27 -5 24 -10z m1401 -8 c3 -5 -1 -10 -9 -10 -9 0 -16 5 -16 10 0 6
4 10 9 10 6 0 13 -4 16 -10z m-1855 -10 c0 -5 -7 -7 -15 -4 -8 4 -15 8 -15 10
0 2 7 4 15 4 8 0 15 -4 15 -10z m4163 -16 c-18 -14 -33 -34 -33 -44 0 -10 -6
-21 -12 -24 -10 -5 -10 -7 0 -12 6 -3 12 -10 12 -16 0 -6 -9 -3 -19 6 -10 10
-27 16 -36 14 -23 -4 -31 18 -10 26 9 3 13 2 10 -4 -11 -18 15 -10 36 11 15
15 18 24 9 34 -8 9 -7 14 5 19 8 3 15 1 15 -5 0 -6 10 -3 22 5 36 25 36 18 1
-10z m-2376 10 c-3 -3 -12 -4 -19 -1 -8 3 -5 6 6 6 11 1 17 -2 13 -5z m-2017
-24 c-16 -11 -40 -13 -40 -5 0 8 44 24 50 18 2 -2 -2 -8 -10 -13z m2465 10 c3
-5 2 -10 -4 -10 -5 0 -13 5 -16 10 -3 6 -2 10 4 10 5 0 13 -4 16 -10z m365 -2
c0 -12 -70 -21 -83 -10 -6 5 -21 12 -32 15 -11 3 10 4 47 3 38 0 68 -4 68 -8z
m1332 2 c-13 -5 -37 -11 -55 -12 -18 -1 -40 -5 -50 -10 -21 -11 -129 1 -122
13 3 4 24 7 46 7 22 0 42 1 44 4 2 2 39 5 82 6 58 1 72 -1 55 -8z m-3042 -4
c0 -2 -15 -6 -34 -8 -19 -2 -32 0 -30 4 5 8 64 12 64 4z m60 -10 c-7 -7 -13
-7 -20 0 -6 6 -3 10 10 10 13 0 16 -4 10 -10z m1369 -3 c3 -2 0 -8 -6 -14 -7
-7 -17 -3 -34 11 l-24 20 30 -6 c17 -4 32 -9 34 -11z m126 -3 c-3 -5 -14 -10
-23 -9 -14 0 -13 2 3 9 27 11 27 11 20 0z m525 -4 l32 -13 -27 -7 c-15 -4 -30
-5 -33 -1 -3 3 0 5 7 5 7 0 9 5 6 11 -4 6 -14 8 -22 5 -8 -3 -11 -1 -8 4 8 13
6 13 45 -4z m457 8 c-3 -3 -12 -4 -19 -1 -8 3 -5 6 6 6 11 1 17 -2 13 -5z
m108 -17 c11 2 7 -2 -10 -10 -16 -8 -31 -11 -33 -6 -2 4 -13 5 -25 3 -12 -2
-16 -2 -9 2 6 3 9 11 5 17 -4 6 0 8 10 4 10 -4 17 -1 17 6 1 8 5 7 13 -3 7 -9
21 -14 32 -13z m-3821 -2 c-4 -8 -9 -15 -13 -15 -4 0 -8 7 -8 15 0 8 6 15 13
15 8 0 11 -6 8 -15z m3456 -2 c0 -16 -8 -17 -62 -14 -57 4 -60 5 -28 12 19 4
38 5 42 3 5 -3 8 0 8 5 0 6 9 11 20 11 12 0 20 -7 20 -17z m198 6 c-10 -5 -18
-19 -18 -29 0 -19 -10 -24 -37 -21 -18 3 -16 -38 1 -45 18 -7 28 -32 16 -39
-6 -3 -15 5 -21 19 -7 14 -21 28 -31 32 -19 6 -19 6 -1 19 17 12 16 14 -7 33
-14 12 -21 24 -16 29 5 4 11 2 13 -4 3 -7 14 -13 25 -13 14 0 18 5 14 15 -4
12 3 15 37 15 33 -1 38 -3 25 -11z m849 -6 c4 -12 -51 -28 -66 -18 -6 3 -7 12
-4 21 7 18 64 16 70 -3z m-3283 -9 c9 -24 2 -26 -12 -4 -7 11 -8 20 -3 20 5 0
12 -7 15 -16z m1486 -25 c0 -4 -20 -6 -45 -5 -25 0 -45 4 -45 9 0 4 0 11 0 16
0 26 88 6 90 -20z m-1925 11 c7 -12 -2 -12 -30 0 -19 8 -19 9 2 9 12 1 25 -3
28 -9z m2415 -10 c0 -17 -21 -21 -35 -6 -11 11 -12 15 -2 19 15 5 37 -2 37
-13z m-3260 0 c0 -5 -2 -10 -4 -10 -3 0 -8 5 -11 10 -3 6 -1 10 4 10 6 0 11
-4 11 -10z m1085 1 c35 -14 -31 -38 -80 -30 -36 6 -37 6 -9 8 17 0 37 8 44 16
14 17 16 17 45 6z m1575 -1 c0 -5 -4 -10 -9 -10 -6 0 -13 5 -16 10 -3 6 1 10
9 10 9 0 16 -4 16 -10z m-2770 -9 c0 -13 -21 -19 -43 -13 -15 4 -16 7 -5 13
17 12 48 11 48 0z m925 -1 c3 -6 -4 -10 -17 -10 -13 0 -29 -5 -36 -12 -9 -9
-12 -9 -12 0 0 23 53 41 65 22z m1268 -6 c-3 -9 -9 -12 -12 -7 -3 4 -10 11
-15 16 -5 4 0 7 12 7 15 0 20 -4 15 -16z m2452 6 c-27 -12 -43 -12 -25 0 8 5
22 9 30 9 10 0 8 -3 -5 -9z m-3291 -8 c2 -4 -23 -8 -57 -9 -55 0 -57 0 -22 7
58 11 73 11 79 2z m2296 -11 c0 -6 -9 -9 -19 -8 -11 0 -17 5 -15 9 7 11 34 10
34 -1z m373 0 c9 -1 17 -6 17 -12 0 -6 -9 -8 -22 -4 -18 5 -20 4 -8 -4 8 -6
23 -11 33 -11 9 0 17 -4 17 -9 0 -5 7 -12 16 -15 8 -3 13 -2 10 3 -3 5 2 12
11 15 15 6 15 8 3 16 -8 6 -10 10 -5 11 6 0 22 2 38 4 18 2 25 0 21 -7 -5 -7
2 -9 20 -6 14 3 29 1 32 -3 3 -5 -8 -12 -25 -15 -33 -7 -43 -24 -14 -24 15 0
14 -3 -5 -22 -19 -19 -25 -21 -42 -10 -11 6 -29 12 -40 12 -11 0 -20 7 -20 15
0 11 -11 15 -42 15 -24 0 -50 4 -58 10 -9 6 -19 5 -29 -3 -11 -10 -13 -9 -9 3
2 8 15 17 29 21 13 4 18 7 12 8 -7 1 -13 6 -13 11 0 6 12 9 28 6 15 -2 35 -5
45 -5z m491 -3 c-2 -4 6 -8 18 -10 34 -5 32 -23 -6 -43 -20 -11 -31 -22 -25
-26 18 -11 -38 -20 -63 -10 -13 6 -18 10 -13 11 18 1 -20 20 -41 20 -11 0 -29
10 -40 23 -10 12 -12 16 -4 10 8 -7 32 -13 55 -12 22 0 35 3 28 5 -25 11 16
39 56 39 22 0 37 -3 35 -7z m-4926 -25 c2 -26 1 -26 -12 -8 -13 18 -11 25 9
35 0 0 2 -12 3 -27z m346 12 c3 -9 12 -12 23 -8 12 4 15 3 8 -5 -7 -7 -31 -8
-70 -2 -51 6 -54 8 -20 9 30 1 36 4 25 11 -12 8 -11 10 6 10 12 0 24 -7 28
-15z m166 6 c0 -5 -6 -14 -14 -20 -12 -10 -13 -8 -9 8 5 21 23 30 23 12z
m1297 3 c-3 -3 -12 -4 -19 -1 -8 3 -5 6 6 6 11 1 17 -2 13 -5z m1868 -4 c3 -5
-1 -10 -10 -10 -9 0 -13 5 -10 10 3 6 8 10 10 10 2 0 7 -4 10 -10z m1489 -5
c-4 -8 -17 -15 -29 -15 -13 0 -26 -4 -29 -9 -7 -11 -56 -2 -56 11 0 6 -10 8
-23 5 -12 -4 -28 -3 -35 2 -8 5 9 9 39 10 29 1 55 4 58 6 2 3 21 5 42 5 30 0
37 -3 33 -15z m213 9 c-3 -3 -12 -4 -19 -1 -8 3 -5 6 6 6 11 1 17 -2 13 -5z
m-1387 -14 c0 -5 -5 -10 -11 -10 -5 0 -7 5 -4 10 3 6 8 10 11 10 2 0 4 -4 4
-10z m670 0 c0 -5 -5 -10 -11 -10 -5 0 -7 5 -4 10 3 6 8 10 11 10 2 0 4 -4 4
-10z m640 0 c0 -5 -4 -10 -10 -10 -5 0 -10 5 -10 10 0 6 5 10 10 10 6 0 10 -4
10 -10z m-4410 -15 c0 -8 -7 -15 -15 -15 -13 0 -14 3 -3 15 16 18 18 18 18 0z
m45 -4 c-3 -6 -11 -11 -17 -11 -6 0 -6 6 2 15 14 17 26 13 15 -4z m2690 7
c-24 -14 -95 -20 -95 -8 0 5 19 11 43 13 23 2 49 4 57 5 10 1 8 -3 -5 -10z
m265 2 c23 -8 24 -8 3 -9 -12 -1 -52 -12 -89 -25 -37 -14 -71 -23 -75 -20 -4
2 -10 -2 -12 -8 -4 -10 -6 -10 -6 -1 -2 25 42 53 81 53 24 0 37 4 33 10 -7 12
29 12 65 0z m-1640 -4 c0 -3 -4 -8 -10 -11 -5 -3 -10 -1 -10 4 0 6 5 11 10 11
6 0 10 -2 10 -4z m3080 -13 c0 -9 -3 -13 -7 -10 -9 10 -35 -45 -30 -65 3 -10
1 -16 -4 -12 -5 3 -9 12 -9 19 0 8 -6 12 -12 10 -7 -3 -33 -7 -58 -10 -25 -2
-60 -7 -77 -11 -29 -5 -33 -4 -33 14 0 12 5 24 10 27 6 4 8 11 5 16 -4 5 5 9
19 9 13 0 33 3 43 6 17 5 17 5 0 -9 -11 -9 -26 -13 -35 -9 -15 5 -15 4 -2 -10
12 -12 31 -14 80 -11 70 5 82 9 60 23 -13 8 -12 12 5 24 26 20 45 20 45 -1z
m-5720 -3 c0 -5 -10 -10 -22 -9 -22 0 -22 1 -3 9 11 5 21 9 23 9 1 1 2 -3 2
-9z m373 -5 c4 -8 1 -17 -5 -21 -7 -4 -8 -3 -4 4 4 7 0 12 -11 13 -23 2 -24 2
-56 -6 -16 -4 -27 -3 -27 3 0 10 26 17 76 21 12 0 24 -6 27 -14z m1024 9 c-3
-3 -12 -4 -19 -1 -8 3 -5 6 6 6 11 1 17 -2 13 -5z m83 -4 c-20 -13 -53 -13
-45 0 3 6 18 10 33 10 21 0 24 -2 12 -10z m280 -5 c0 -8 -7 -15 -15 -15 -26 0
-18 20 13 29 1 1 2 -6 2 -14z m1370 5 c0 -5 -4 -10 -10 -10 -5 0 -10 5 -10 10
0 6 5 10 10 10 6 0 10 -4 10 -10z m-795 -16 c-15 -16 -29 -19 -21 -5 4 5 0 11
-6 14 -7 2 -1 4 14 4 23 0 25 -2 13 -13z m1760 6 c-3 -5 -10 -10 -16 -10 -5 0
-9 5 -9 10 0 6 7 10 16 10 8 0 12 -4 9 -10z m190 0 c3 -5 -1 -10 -9 -10 -8 0
-18 5 -21 10 -3 6 1 10 9 10 8 0 18 -4 21 -10z m-3025 -10 c0 -5 -5 -10 -11
-10 -5 0 -7 5 -4 10 3 6 8 10 11 10 2 0 4 -4 4 -10z m933 3 c-7 -2 -21 -2 -30
0 -10 3 -4 5 12 5 17 0 24 -2 18 -5z m3642 -3 c-3 -5 -15 -10 -25 -10 -10 0
-22 5 -25 10 -4 6 7 10 25 10 18 0 29 -4 25 -10z m-2927 -16 c-9 -8 -77 -10
-72 -2 3 5 12 7 18 5 7 -3 19 -1 26 3 13 8 36 3 28 -6z m1097 6 c3 -5 1 -10
-4 -10 -6 0 -11 5 -11 10 0 6 2 10 4 10 3 0 8 -4 11 -10z m-3015 -10 c0 -5 -7
-10 -15 -10 -8 0 -15 5 -15 10 0 6 7 10 15 10 8 0 15 -4 15 -10z m2670 0 c0
-5 -2 -10 -4 -10 -3 0 -8 5 -11 10 -3 6 -1 10 4 10 6 0 11 -4 11 -10z m-2590
-5 c0 -11 -42 -25 -53 -18 -8 5 -2 10 18 14 17 4 31 7 33 8 1 0 2 -1 2 -4z
m1558 -8 c9 -19 -6 -21 -38 -4 l-35 18 35 -4 c19 -2 36 -6 38 -10z m415 6 c-7
-2 -19 -2 -25 0 -7 3 -2 5 12 5 14 0 19 -2 13 -5z m1792 -3 c16 -6 14 -8 -12
-7 -18 0 -30 4 -27 9 6 10 12 9 39 -2z m-2135 -10 c-19 -13 -30 -13 -30 0 0 6
10 10 23 10 18 0 19 -2 7 -10z m148 -7 c-9 -2 -19 -11 -22 -19 -9 -22 41 -37
102 -30 69 8 66 -6 -5 -25 -32 -9 -57 -21 -55 -27 3 -17 -15 -15 -22 3 -3 8
-10 15 -17 15 -6 0 -9 -7 -5 -15 8 -21 -3 -45 -22 -45 -13 0 -12 3 3 14 16 11
17 17 7 29 -11 13 -10 16 7 22 24 7 28 25 7 25 -16 0 -45 40 -39 55 2 6 19 9
41 6 20 -3 30 -6 20 -8z m592 12 c0 -2 -16 -12 -35 -21 -35 -16 -35 -17 -18
-38 18 -20 18 -20 -2 -6 -11 8 -21 15 -23 16 -9 4 14 37 32 44 24 10 46 12 46
5z m1340 -4 c0 -13 -28 -22 -35 -11 -3 4 1 11 7 13 20 8 28 8 28 -2z m-4816
-16 c-25 -19 -40 -19 -24 0 7 8 20 15 28 15 13 0 12 -3 -4 -15z m5315 5 c26
-1 32 -3 21 -10 -13 -7 -64 -7 -135 -1 -5 1 -3 6 5 11 8 6 28 8 44 5 16 -3 45
-5 65 -5z m-4694 -10 c-3 -5 -12 -10 -18 -10 -7 0 -6 4 3 10 19 12 23 12 15 0z
m40 0 c-3 -5 -11 -10 -16 -10 -6 0 -7 5 -4 10 3 6 11 10 16 10 6 0 7 -4 4 -10z
m4013 3 c-10 -2 -28 -2 -40 0 -13 2 -5 4 17 4 22 1 32 -1 23 -4z m-3102 -30
c27 6 27 6 7 -5 -13 -6 -23 -18 -23 -27 -1 -13 -3 -13 -15 3 -8 11 -15 14 -15
8 0 -7 -8 -12 -17 -12 -17 1 -17 1 0 11 9 5 17 18 17 27 0 14 2 14 9 3 6 -9
18 -12 37 -8z m508 11 c25 -10 8 -24 -29 -24 -39 0 -56 17 -23 23 13 2 26 5
30 6 3 0 13 -2 22 -5z m2062 -10 c10 2 13 1 7 -1 -7 -3 -13 -8 -13 -13 0 -4
-11 -3 -24 3 -13 7 -22 15 -19 20 3 4 10 3 17 -2 7 -6 21 -9 32 -7z m-1436 2
c0 -11 -19 -15 -25 -6 -3 5 1 10 9 10 9 0 16 -2 16 -4z m1330 -6 c0 -5 -4 -10
-9 -10 -6 0 -13 5 -16 10 -3 6 1 10 9 10 9 0 16 -4 16 -10z m-245 -10 c3 -6
-1 -7 -9 -4 -18 7 -21 14 -7 14 6 0 13 -4 16 -10z m285 0 c13 -8 13 -10 -2
-10 -9 0 -20 5 -23 10 -8 13 5 13 25 0z m-3011 -43 c1 -5 -3 -5 -9 -2 -5 3
-10 16 -9 28 0 21 1 21 9 2 5 -11 9 -24 9 -28z m1962 10 c-16 -16 -26 0 -10
19 9 11 15 12 17 4 2 -6 -1 -17 -7 -23z m247 24 c9 -5 0 -11 -30 -17 -43 -8
-42 -8 32 -14 l75 -6 -60 -2 c-33 -1 -75 -6 -93 -11 -28 -8 -36 -6 -58 15 -22
23 -22 25 -4 19 11 -3 20 -2 20 4 0 5 21 12 48 14 26 2 49 4 52 5 3 1 11 -2
18 -7z m83 -14 c-10 -9 -11 -8 -5 6 3 10 9 15 12 12 3 -3 0 -11 -7 -18z
m-2238 6 c-7 -2 -21 -2 -30 0 -10 3 -4 5 12 5 17 0 24 -2 18 -5z m1539 -5 c-9
-9 -15 -9 -24 0 -9 9 -7 12 12 12 19 0 21 -3 12 -12z m-1285 -4 c-3 -3 -12 -4
-19 -1 -8 3 -5 6 6 6 11 1 17 -2 13 -5z m2163 -8 c30 0 87 3 126 7 59 7 77 5
115 -12 24 -11 37 -20 27 -20 -9 -1 -18 -7 -21 -13 -3 -10 -9 -10 -23 -2 -11
6 -37 9 -59 8 l-40 -3 38 8 c77 16 48 23 -78 16 -71 -4 -147 -11 -168 -15 -29
-6 -40 -5 -44 6 -3 8 -11 14 -19 14 -8 0 -14 5 -14 11 0 8 15 9 53 3 28 -4 77
-8 107 -8z m-2635 -6 c3 -5 1 -10 -4 -10 -6 0 -11 5 -11 10 0 6 2 10 4 10 3 0
8 -4 11 -10z m2484 -14 c9 -10 8 -15 -4 -20 -8 -3 -15 -4 -15 -2 0 3 -3 11 -6
20 -8 20 9 21 25 2z m2138 8 c-3 -3 -12 -4 -19 -1 -8 3 -5 6 6 6 11 1 17 -2
13 -5z m53 2 c0 -2 -7 -6 -15 -10 -8 -3 -15 -1 -15 4 0 6 7 10 15 10 8 0 15
-2 15 -4z m-2954 -29 c1 -18 -4 -22 -27 -23 -37 -1 -38 19 -1 33 15 6 27 11
27 12 0 1 1 -9 1 -22z m1488 7 c3 -8 2 -12 -4 -9 -6 3 -10 10 -10 16 0 14 7
11 14 -7z m1391 -14 c0 -11 -9 -14 -30 -12 -34 4 -50 16 -41 30 9 15 71 -1 71
-18z m-2495 10 c0 -5 -2 -10 -4 -10 -3 0 -8 5 -11 10 -3 6 -1 10 4 10 6 0 11
-4 11 -10z m935 1 c15 -6 11 -9 -20 -14 -57 -10 -62 -9 -62 8 0 16 46 20 82 6z
m-118 -7 c-3 -3 -12 -4 -19 -1 -8 3 -5 6 6 6 11 1 17 -2 13 -5z m1757 -9 c-25
-19 -40 -19 -24 0 7 8 20 15 28 15 13 0 12 -3 -4 -15z m-474 -16 c0 -14 -17
-10 -23 5 -4 10 -1 13 9 9 7 -3 14 -9 14 -14z m117 -1 c-3 -8 -6 -5 -6 6 -1
11 2 17 5 13 3 -3 4 -12 1 -19z m217 -7 c64 4 86 0 80 -16 -4 -8 -1 -15 7 -15
7 0 10 -3 6 -6 -3 -4 1 -14 10 -22 14 -15 13 -17 -10 -25 -21 -7 -33 -3 -60
17 -37 29 -57 32 -75 14 -9 -9 -15 -9 -23 -1 -12 12 -3 37 10 29 4 -3 13 -1
20 4 11 6 9 10 -8 19 -11 7 -21 16 -21 22 0 6 7 3 16 -6 10 -9 30 -15 48 -14z
m-4320 11 c10 -16 -10 -31 -41 -30 -31 1 -37 18 -7 18 8 0 14 5 14 10 0 12 27
13 34 2z m295 -6 c10 -12 8 -13 -8 -9 -12 3 -21 9 -21 14 0 14 16 11 29 -5z
m1321 4 c0 -5 -5 -10 -11 -10 -5 0 -7 5 -4 10 3 6 8 10 11 10 2 0 4 -4 4 -10z
m1796 -8 c-10 -2 -22 0 -28 6 -6 6 0 7 19 4 21 -5 23 -7 9 -10z m644 8 c0 -5
-4 -10 -10 -10 -5 0 -10 5 -10 10 0 6 5 10 10 10 6 0 10 -4 10 -10z m-5895
-10 c-3 -5 -12 -10 -18 -10 -7 0 -6 4 3 10 19 12 23 12 15 0z m1472 4 c-3 -3
-12 -4 -19 -1 -8 3 -5 6 6 6 11 1 17 -2 13 -5z m1378 -27 c11 -3 3 -5 -17 -6
-20 0 -40 4 -43 9 -3 6 -17 10 -31 10 -14 0 -23 4 -19 9 3 6 22 4 48 -4 23 -8
51 -16 62 -18z m315 8 c-11 -14 -10 -17 9 -22 12 -3 20 -11 18 -17 -2 -6 8
-17 22 -24 l26 -12 -31 4 c-16 3 -37 6 -44 8 -8 2 -15 -1 -15 -7 -3 -23 -18
-44 -27 -39 -5 3 -4 11 3 20 11 14 9 16 -20 18 -8 1 -18 12 -22 25 -8 20 -7
23 11 18 15 -4 20 0 20 14 0 13 -5 17 -17 13 -15 -5 -16 -4 -3 5 8 5 25 8 36
5 12 -3 25 0 29 6 4 6 9 9 12 6 3 -3 0 -13 -7 -21z m751 7 c-7 -2 -18 1 -23 6
-8 8 -4 9 13 5 13 -4 18 -8 10 -11z m-2406 -2 c3 -6 -1 -7 -9 -4 -18 7 -21 14
-7 14 6 0 13 -4 16 -10z m4525 6 c0 -11 -19 -15 -25 -6 -3 5 1 10 9 10 9 0 16
-2 16 -4z m-6150 -10 c0 -2 -9 -6 -20 -9 -11 -3 -18 -1 -14 4 5 9 34 13 34 5z
m1345 -15 c-16 -10 -32 -14 -34 -8 -5 12 19 27 44 27 16 0 15 -3 -10 -19z
m185 4 c-7 -8 -17 -15 -23 -15 -6 0 -2 7 9 15 25 19 30 19 14 0z m2240 5 c0
-5 14 -7 33 -3 22 4 29 2 22 -5 -5 -6 -32 -12 -60 -13 -27 -1 -56 -6 -62 -12
-9 -6 -13 -6 -13 2 0 6 5 11 11 11 5 0 8 4 5 9 -4 5 0 12 6 14 23 9 58 7 58
-3z m-1903 -6 c-3 -3 -12 -4 -19 -1 -8 3 -5 6 6 6 11 1 17 -2 13 -5z m3597
-15 c-6 -11 -24 -2 -24 11 0 5 7 7 15 4 8 -4 12 -10 9 -15z m201 1 c-10 -11
-21 -17 -24 -14 -3 3 3 12 13 20 28 20 32 17 11 -6z m-2000 -8 c-3 -3 -11 0
-18 7 -9 10 -8 11 6 5 10 -3 15 -9 12 -12z m-2982 1 c-7 -2 -21 -2 -30 0 -10
3 -4 5 12 5 17 0 24 -2 18 -5z m562 -3 c-3 -5 -11 -10 -16 -10 -6 0 -7 5 -4
10 3 6 11 10 16 10 6 0 7 -4 4 -10z m2719 -27 c-12 -13 -20 -13 -40 -5 -36 17
-29 28 16 24 35 -4 38 -6 24 -19z m1631 17 c3 -6 -1 -7 -9 -4 -18 7 -21 14 -7
14 6 0 13 -4 16 -10z m-4440 -19 c-3 -5 2 -11 10 -13 13 -2 12 -5 -3 -15 -17
-10 -19 -9 -19 13 0 13 4 24 9 24 5 0 7 -4 3 -9z m175 -1 c0 -5 -7 -7 -15 -4
-8 4 -15 8 -15 10 0 2 7 4 15 4 8 0 15 -4 15 -10z m2473 -8 c11 -9 22 -10 41
-2 50 19 62 13 35 -16 -13 -14 -31 -23 -41 -21 -11 3 -15 0 -11 -9 3 -8 -1
-14 -10 -14 -22 0 -31 18 -17 35 11 13 4 14 -49 12 -45 -2 -65 1 -74 12 -10
12 -9 14 4 9 9 -3 22 -2 30 3 18 11 74 6 92 -9z m-2513 -2 c0 -5 -7 -10 -16
-10 -8 0 -12 5 -9 10 3 6 10 10 16 10 5 0 9 -4 9 -10z m-720 -10 c0 -5 -5 -10
-11 -10 -5 0 -7 5 -4 10 3 6 8 10 11 10 2 0 4 -4 4 -10z m3052 -8 c-3 -9 -1
-13 5 -9 6 4 23 1 38 -7 l26 -14 -23 -16 c-21 -15 -23 -15 -30 3 -10 28 -24
33 -41 16 -20 -19 -28 -19 -21 0 4 8 13 15 21 15 9 0 13 6 10 13 -3 8 1 14 8
14 8 0 11 -7 7 -15z m-1932 -2 c0 -5 -4 -10 -10 -10 -5 0 -10 5 -10 10 0 6 5
10 10 10 6 0 10 -4 10 -10z m2080 -20 c12 -7 12 -10 1 -10 -7 0 -11 -6 -7 -15
7 -19 2 -19 -37 2 l-32 17 25 7 c35 10 33 10 50 -1z m-520 -20 c0 -5 -4 -10
-10 -10 -5 0 -10 5 -10 10 0 6 5 10 10 10 6 0 10 -4 10 -10z m2585 -8 c-3 -3
-11 0 -18 7 -9 10 -8 11 6 5 10 -3 15 -9 12 -12z m-5265 -12 c0 -5 -3 -10 -7
-10 -5 0 -19 -3 -33 -6 l-25 -5 25 15 c30 18 40 20 40 6z m50 0 c0 -5 -2 -10
-4 -10 -3 0 -8 5 -11 10 -3 6 -1 10 4 10 6 0 11 -4 11 -10z m387 -6 c-3 -3
-12 -4 -19 -1 -8 3 -5 6 6 6 11 1 17 -2 13 -5z m2672 -11 c-4 -41 0 -46 34
-41 36 6 57 1 57 -13 0 -5 -21 -9 -47 -10 -36 -1 -42 -3 -23 -8 l24 -7 -31
-13 c-17 -7 -39 -11 -49 -9 -22 4 -30 25 -12 31 7 2 6 3 -3 2 -9 -1 -23 1 -30
6 -11 7 -11 9 -1 9 9 0 11 7 7 20 -5 17 -2 19 22 16 15 -2 22 -1 14 1 -11 4
-8 9 10 19 31 17 31 17 28 -3z m96 -3 c-3 -5 -16 -10 -28 -10 -18 0 -19 2 -7
10 20 13 43 13 35 0z m2770 -21 c-17 -4 -40 -18 -52 -29 -23 -21 -87 -28 -97
-11 -4 5 11 7 33 4 35 -5 40 -3 38 15 0 11 -6 18 -13 15 -7 -2 -15 0 -19 6 -4
8 17 11 67 10 59 -1 67 -2 43 -10z m-6025 -4 c0 -14 -42 -25 -58 -15 -15 9
-14 10 6 5 13 -4 22 -2 22 4 0 6 7 11 15 11 8 0 15 -2 15 -5z m0 -39 c0 -11
-19 -15 -25 -6 -3 5 1 10 9 10 9 0 16 -2 16 -4z m5670 -6 c0 -5 -8 -10 -17
-10 -15 0 -16 2 -3 10 19 12 20 12 20 0z m-5005 -22 c-16 -5 -35 -10 -42 -10
-6 -1 -9 -7 -6 -13 4 -13 -26 -30 -35 -20 -3 3 0 5 7 5 8 0 11 7 7 15 -4 10 5
17 27 24 44 13 81 12 42 -1z m305 -8 c-38 -21 -70 -26 -70 -10 0 6 12 10 28
10 15 0 34 5 42 10 8 5 20 10 25 9 6 0 -6 -8 -25 -19z m779 17 c-15 -13 -69
-34 -69 -27 0 5 12 13 28 18 28 11 49 15 41 9z m1716 -7 c3 -5 -3 -10 -15 -10
-12 0 -18 5 -15 10 3 6 10 10 15 10 5 0 12 -4 15 -10z m-556 -36 c8 -28 7 -29
-28 -29 -20 0 -52 -3 -71 -7 -46 -9 -77 12 -34 24 16 4 37 5 47 2 9 -3 17 -1
17 5 0 6 9 11 19 11 10 0 22 7 25 16 8 21 14 15 25 -22z m2611 11 c-7 -8 -22
-15 -34 -15 -20 0 -19 1 4 14 34 19 45 19 30 1z m-5666 -10 c-10 -8 -23 -15
-28 -15 -6 0 -1 7 10 15 10 8 23 15 28 15 6 0 1 -7 -10 -15z m1036 5 c0 -5 -7
-7 -15 -4 -8 4 -15 8 -15 10 0 2 7 4 15 4 8 0 15 -4 15 -10z m273 -11 c-11
-12 -27 -19 -34 -17 -9 3 -3 11 16 21 40 22 43 21 18 -4z m1982 10 c10 -15 -1
-23 -20 -15 -9 3 -13 10 -10 16 8 13 22 13 30 -1z m2218 4 c-7 -2 -19 -2 -25
0 -7 3 -2 5 12 5 14 0 19 -2 13 -5z m-172 -29 c-27 -15 -55 -23 -70 -21 -23 3
-22 4 6 6 24 1 30 5 27 19 -4 14 3 17 38 19 l43 3 -44 -26z m-4646 6 c-3 -5
-14 -10 -23 -9 -14 0 -13 2 3 9 27 11 27 11 20 0z m5175 7 c0 -2 -10 -13 -23
-25 -22 -21 -23 -21 -23 -1 0 11 5 18 13 15 7 -3 15 -1 18 4 6 10 15 14 15 7z
m-5063 -13 c-3 -3 -12 -4 -19 -1 -8 3 -5 6 6 6 11 1 17 -2 13 -5z m450 0 c-3
-3 -12 -4 -19 -1 -8 3 -5 6 6 6 11 1 17 -2 13 -5z m4260 -6 c-31 -11 -27 -28
8 -28 18 0 23 -4 19 -15 -9 -21 -31 -19 -44 5 -10 19 -13 19 -40 5 -34 -17
-80 -20 -80 -4 0 5 5 7 11 3 18 -11 88 17 82 32 -4 11 5 14 33 13 38 -1 38 -1
11 -11z m80 6 c-3 -3 -12 -4 -19 -1 -8 3 -5 6 6 6 11 1 17 -2 13 -5z m-4477
-8 c0 -2 -7 -7 -16 -10 -8 -3 -12 -2 -9 4 6 10 25 14 25 6z m840 -16 c11 -7 6
-10 -20 -10 -26 0 -31 3 -20 10 8 5 17 10 20 10 3 0 12 -5 20 -10z m-1213 -6
c-3 -3 -12 -4 -19 -1 -8 3 -5 6 6 6 11 1 17 -2 13 -5z m4848 -4 c3 -5 1 -10
-4 -10 -6 0 -11 5 -11 10 0 6 2 10 4 10 3 0 8 -4 11 -10z m-4445 -15 c0 -16
-9 -19 -36 -8 -16 6 -16 7 2 14 29 11 34 10 34 -6z m2325 5 c3 -5 1 -10 -4
-10 -6 0 -11 5 -11 10 0 6 2 10 4 10 3 0 8 -4 11 -10z m1285 -10 c0 -5 -7 -10
-16 -10 -8 0 -12 5 -9 10 3 6 10 10 16 10 5 0 9 -4 9 -10z"/>
<path d="M2135 2381 c-3 -5 -1 -12 5 -16 5 -3 10 1 10 9 0 18 -6 21 -15 7z"/>
<path d="M1785 2267 c-12 -14 -20 -17 -23 -9 -5 15 -32 16 -32 2 0 -6 7 -13
15 -17 14 -5 14 -7 -1 -24 -9 -10 -13 -23 -9 -28 9 -16 19 -13 33 10 11 17 11
20 0 14 -7 -3 -4 1 7 10 18 14 21 14 31 0 11 -15 14 -14 26 4 8 12 18 18 22
14 4 -4 4 0 1 8 -3 9 -16 21 -29 27 -19 8 -26 6 -41 -11z"/>
<path d="M2445 2260 c3 -5 10 -10 16 -10 5 0 9 5 9 10 0 6 -7 10 -16 10 -8 0
-12 -4 -9 -10z"/>
<path d="M2000 2243 c1 -20 19 -35 35 -29 14 5 15 9 5 21 -13 16 -40 21 -40 8z"/>
<path d="M2591 2237 c-6 -8 -8 -17 -4 -20 11 -12 21 -7 26 13 6 23 -5 26 -22
7z"/>
<path d="M2605 2180 c3 -5 13 -10 21 -10 8 0 12 5 9 10 -3 6 -13 10 -21 10 -8
0 -12 -4 -9 -10z"/>
<path d="M3040 2270 c0 -6 7 -10 15 -10 8 0 15 2 15 4 0 2 -7 6 -15 10 -8 3
-15 1 -15 -4z"/>
<path d="M3555 2290 c-3 -5 -2 -10 4 -10 5 0 13 5 16 10 3 6 2 10 -4 10 -5 0
-13 -4 -16 -10z"/>
<path d="M3540 2261 c0 -5 6 -11 13 -14 7 -3 2 -9 -12 -14 -15 -6 -20 -12 -13
-17 6 -3 13 -2 17 4 3 5 16 10 27 10 20 0 21 1 3 20 -19 21 -35 26 -35 11z"/>
<path d="M3447 2223 c-12 -12 -7 -22 8 -17 8 4 15 10 15 15 0 11 -14 12 -23 2z"/>
<path d="M3545 2190 c-3 -5 -2 -10 4 -10 5 0 13 5 16 10 3 6 2 10 -4 10 -5 0
-13 -4 -16 -10z"/>
<path d="M3437 2179 c7 -7 15 -10 18 -7 3 3 -2 9 -12 12 -14 6 -15 5 -6 -5z"/>
<path d="M3480 2179 c0 -5 5 -7 10 -4 6 3 10 8 10 11 0 2 -4 4 -10 4 -5 0 -10
-5 -10 -11z"/>
<path d="M4582 2169 c-23 -18 -30 -35 -9 -22 12 7 17 9 50 11 22 2 22 18 -1
24 -10 3 -28 -3 -40 -13z"/>
<path d="M4675 2140 c3 -5 8 -10 11 -10 2 0 4 5 4 10 0 6 -5 10 -11 10 -5 0
-7 -4 -4 -10z"/>
<path d="M4624 2118 c12 -7 21 -7 28 0 6 6 0 10 -18 10 -23 0 -24 -2 -10 -10z"/>
<path d="M3990 2110 c-13 -8 -12 -10 3 -10 9 0 17 5 17 10 0 12 -1 12 -20 0z"/>
<path d="M4320 2100 c0 -5 12 -10 26 -10 14 0 23 4 19 10 -3 6 -15 10 -26 10
-10 0 -19 -4 -19 -10z"/>
<path d="M5070 2095 c0 -8 4 -15 9 -15 5 0 11 7 15 15 3 9 0 15 -9 15 -8 0
-15 -7 -15 -15z"/>
<path d="M4015 2080 c-3 -5 3 -10 15 -10 12 0 18 5 15 10 -3 6 -10 10 -15 10
-5 0 -12 -4 -15 -10z"/>
<path d="M4368 2043 c6 -2 18 -2 25 0 6 3 1 5 -13 5 -14 0 -19 -2 -12 -5z"/>
<path d="M5844 1946 c23 -18 36 -20 36 -6 0 6 -4 10 -9 10 -5 0 -18 3 -28 6
-16 5 -16 4 1 -10z"/>
<path d="M6276 1921 c-16 -18 -15 -19 25 -25 46 -7 63 1 53 27 -8 23 -57 22
-78 -2z"/>
<path d="M6226 1921 c-12 -5 -15 -10 -9 -14 6 -4 16 0 23 8 14 17 13 17 -14 6z"/>
<path d="M5445 1550 c4 -6 11 -8 16 -5 14 9 11 15 -7 15 -8 0 -12 -5 -9 -10z"/>
<path d="M4578 1513 c6 -2 18 -2 25 0 6 3 1 5 -13 5 -14 0 -19 -2 -12 -5z"/>
<path d="M3957 1468 c-14 -53 43 -70 151 -45 57 14 69 30 25 35 -15 1 -46 7
-68 12 -97 23 -102 23 -108 -2z"/>
<path d="M5428 1483 c12 -3 20 -8 17 -13 -9 -14 81 -21 145 -11 34 6 65 12 67
15 5 5 -155 16 -212 14 -22 0 -30 -3 -17 -5z"/>
<path d="M3510 1472 c0 -4 10 -9 22 -9 18 -2 20 0 8 7 -18 12 -30 13 -30 2z"/>
<path d="M3560 1464 c0 -9 40 -23 44 -15 3 5 -5 11 -19 13 -14 3 -25 4 -25 2z"/>
<path d="M4313 1333 c9 -2 25 -2 35 0 9 3 1 5 -18 5 -19 0 -27 -2 -17 -5z"/>
<path d="M4424 1320 c28 -5 56 -6 63 -2 7 4 -15 8 -50 9 l-62 1 49 -8z"/>
<path d="M4236 1279 c2 -4 19 -9 38 -11 19 -2 33 -1 30 3 -2 4 -19 9 -38 11
-19 2 -33 1 -30 -3z"/>
<path d="M6960 1212 c0 -10 41 -35 48 -28 3 3 0 6 -6 6 -7 0 -12 7 -12 15 0 8
-7 15 -15 15 -8 0 -15 -3 -15 -8z"/>
<path d="M6820 1190 c0 -9 80 -23 88 -15 9 8 -1 12 -45 18 -24 3 -43 2 -43 -3z"/>
<path d="M6398 1153 c6 -2 18 -2 25 0 6 3 1 5 -13 5 -14 0 -19 -2 -12 -5z"/>
<path d="M6400 1100 c0 -11 1 -20 3 -20 1 0 10 9 20 20 16 19 16 20 -3 20 -13
0 -20 -7 -20 -20z"/>
<path d="M6330 1106 c0 -2 7 -6 15 -10 8 -3 15 -1 15 4 0 6 -7 10 -15 10 -8 0
-15 -2 -15 -4z"/>
<path d="M6330 1073 c-47 -9 -45 -23 2 -23 48 0 71 13 42 24 -9 3 -16 5 -17 5
-1 -1 -13 -4 -27 -6z"/>
<path d="M5835 1041 c-24 -5 -26 -8 -12 -13 19 -8 47 0 47 13 0 5 -1 8 -2 8
-2 -1 -16 -4 -33 -8z"/>
<path d="M5864 1014 c-18 -15 -18 -15 6 -10 14 3 28 6 33 6 4 0 7 5 7 10 0 15
-24 12 -46 -6z"/>
<path d="M5995 970 c-3 -5 -1 -10 4 -10 6 0 11 5 11 10 0 6 -2 10 -4 10 -3 0
-8 -4 -11 -10z"/>
<path d="M7075 853 c11 -3 25 -9 30 -13 6 -4 16 -2 23 6 11 12 6 14 -30 13
-24 -1 -34 -4 -23 -6z"/>
<path d="M7310 750 c0 -5 4 -10 9 -10 6 0 13 5 16 10 3 6 -1 10 -9 10 -9 0
-16 -4 -16 -10z"/>
<path d="M5510 740 c-9 -6 -10 -10 -3 -10 6 0 15 5 18 10 8 12 4 12 -15 0z"/>
<path d="M7200 660 c0 -13 11 -13 30 0 12 8 11 10 -7 10 -13 0 -23 -4 -23 -10z"/>
<path d="M4690 559 c0 -5 5 -7 10 -4 6 3 10 8 10 11 0 2 -4 4 -10 4 -5 0 -10
-5 -10 -11z"/>
<path d="M7330 386 c0 -3 9 -15 20 -26 20 -20 20 -20 16 3 -2 18 -36 40 -36
23z"/>
<path d="M4875 310 c-3 -5 -1 -10 4 -10 6 0 11 5 11 10 0 6 -2 10 -4 10 -3 0
-8 -4 -11 -10z"/>
<path d="M7753 6389 c-41 -42 -42 -42 -68 -25 -14 9 -31 13 -38 9 -7 -4 -56
-8 -109 -8 -88 -1 -100 -4 -135 -28 -22 -15 -50 -27 -64 -27 -42 -1 -109 -37
-109 -60 0 -11 -6 -20 -14 -20 -17 0 -27 -37 -19 -69 4 -17 3 -22 -5 -17 -7 4
-12 2 -12 -3 0 -6 -13 -22 -28 -36 -16 -14 -40 -56 -57 -100 -16 -42 -34 -75
-42 -75 -7 0 -13 -4 -13 -9 0 -4 -18 -11 -39 -14 -41 -5 -65 -23 -94 -69 -12
-19 -28 -29 -54 -33 -21 -3 -50 -13 -65 -21 -18 -10 -28 -11 -28 -4 0 18 -80
-72 -96 -107 -8 -18 -14 -47 -14 -65 0 -33 -29 -99 -56 -125 -21 -21 -29 -64
-15 -82 42 -57 62 -149 62 -278 0 -88 2 -94 30 -124 16 -17 35 -29 42 -26 20
7 14 -127 -7 -148 -9 -9 -16 -24 -17 -33 -2 -61 -29 -109 -65 -118 -44 -11
-38 -41 10 -48 29 -4 22 -21 -9 -24 -41 -5 -51 -18 -25 -32 22 -12 22 -12 -16
-51 -23 -24 -47 -39 -62 -39 -21 0 -23 -4 -18 -25 5 -20 3 -25 -11 -25 -10 0
-25 4 -33 9 -20 14 -32 3 -20 -19 12 -22 3 -52 -14 -48 -18 4 -76 -66 -76 -91
0 -11 -3 -21 -8 -21 -4 0 -13 -9 -20 -21 -10 -15 -10 -24 -2 -34 9 -10 6 -15
-10 -20 -11 -4 -20 -12 -19 -18 4 -33 -3 -47 -26 -53 -14 -3 -25 -11 -25 -18
0 -21 -116 -146 -135 -146 -16 0 -75 -54 -75 -69 0 -6 9 -16 20 -23 11 -7 20
-19 20 -27 0 -18 82 -8 113 14 31 22 73 19 97 -7 16 -17 23 -20 29 -10 9 15
37 22 114 28 58 5 59 5 96 -37 24 -26 40 -37 43 -28 3 8 11 10 24 5 10 -5 49
-9 86 -10 55 -1 71 -5 91 -24 l25 -24 33 31 c25 24 41 31 73 32 23 0 63 8 90
18 43 15 57 15 120 4 39 -7 73 -12 75 -13 2 0 0 -15 -4 -32 -13 -61 -10 -106
10 -127 23 -27 36 -26 92 3 52 28 68 25 78 -12 5 -21 2 -30 -14 -41 -25 -16
-28 -46 -5 -55 36 -14 64 -6 77 22 16 36 28 44 47 28 8 -8 33 -17 55 -20 35
-6 43 -4 63 19 30 34 42 24 42 -35 0 -27 4 -51 10 -55 5 -3 7 -12 4 -19 -3 -8
5 -21 18 -30 13 -9 23 -20 24 -24 0 -4 5 -23 11 -43 6 -20 8 -49 5 -65 -4 -16
-7 -90 -8 -164 -1 -74 -9 -184 -18 -245 -9 -60 -21 -159 -27 -220 -14 -135
-38 -203 -52 -147 -4 16 -5 16 -6 0 0 -10 -9 -18 -18 -19 -15 0 -14 -2 3 -9
11 -4 28 -19 37 -33 22 -34 119 -77 173 -77 23 0 24 4 24 59 0 33 -4 61 -9 63
-4 2 -12 13 -15 26 -5 15 -3 24 8 28 19 7 21 40 4 48 -10 5 -10 7 0 12 6 3 12
19 12 35 0 22 -5 29 -20 29 -11 0 -20 4 -20 9 0 5 9 13 20 16 29 9 24 22 -12
30 -45 10 -61 29 -53 64 3 16 13 35 21 42 8 7 14 29 14 55 0 49 14 93 35 108
13 10 15 225 13 1704 l-3 1692 -42 -41z m-1218 -1969 c-3 -5 -11 -10 -16 -10
-6 0 -7 5 -4 10 3 6 11 10 16 10 6 0 7 -4 4 -10z m780 -670 c3 -5 1 -10 -4
-10 -6 0 -11 5 -11 10 0 6 2 10 4 10 3 0 8 -4 11 -10z"/>
<path d="M3267 5153 c-8 -7 21 -43 35 -43 13 0 9 20 -6 36 -16 16 -20 17 -29
7z"/>
<path d="M3337 5123 c-12 -11 -8 -23 8 -23 8 0 15 -7 15 -16 0 -12 -6 -15 -24
-10 -37 9 -54 -18 -33 -53 9 -16 14 -31 10 -35 -3 -3 2 -6 11 -6 12 0 16 5 12
15 -4 12 0 14 22 9 l27 -5 -28 24 c-25 21 -26 25 -12 31 9 3 21 4 26 0 12 -7
11 1 -5 41 -16 37 -18 39 -29 28z"/>
<path d="M3520 4745 c0 -5 5 -17 10 -25 5 -8 10 -10 10 -5 0 6 -5 17 -10 25
-5 8 -10 11 -10 5z"/>
<path d="M3660 4674 c0 -18 38 -53 58 -54 17 0 15 7 -9 41 -22 31 -49 39 -49
13z"/>
<path d="M3530 4670 c0 -5 4 -10 9 -10 6 0 13 5 16 10 3 6 -1 10 -9 10 -9 0
-16 -4 -16 -10z"/>
<path d="M3500 4550 c-13 -9 -13 -11 0 -20 8 -5 20 -10 25 -10 6 0 4 4 -4 9
-7 5 -10 14 -7 20 9 13 6 14 -14 1z"/>
<path d="M3636 4388 c-16 -50 -16 -50 0 -44 8 3 20 6 25 6 13 0 11 13 -5 36
-14 18 -15 18 -20 2z"/>
<path d="M3720 4382 c0 -12 19 -26 26 -19 2 2 -2 10 -11 17 -9 8 -15 8 -15 2z"/>
<path d="M3867 4303 c5 -12 2 -15 -10 -10 -26 10 -21 2 29 -39 38 -31 44 -33
33 -13 -7 13 -12 27 -11 31 1 4 -5 5 -14 1 -13 -5 -15 -2 -10 14 4 14 1 23 -8
26 -11 4 -13 1 -9 -10z"/>
<path d="M3706 4275 c-3 -8 -3 -21 0 -28 5 -15 74 -20 74 -6 0 5 -4 9 -10 9
-5 0 -10 6 -10 14 0 13 -20 26 -40 26 -4 0 -10 -7 -14 -15z"/>
<path d="M3794 4254 c3 -9 6 -18 6 -20 0 -2 7 -4 15 -4 18 0 19 12 3 28 -17
17 -31 15 -24 -4z"/>
<path d="M3837 4199 c3 -10 9 -16 14 -13 13 8 11 21 -5 27 -10 4 -12 0 -9 -14z"/>
<path d="M3795 4170 c-7 -12 2 -30 16 -30 12 0 12 27 0 35 -5 3 -12 1 -16 -5z"/>
<path d="M6203 4144 c-3 -8 -1 -20 5 -26 7 -7 10 -2 9 16 -2 30 -5 32 -14 10z"/>
<path d="M3720 4060 c0 -5 5 -10 10 -10 6 0 10 5 10 10 0 6 -4 10 -10 10 -5 0
-10 -4 -10 -10z"/>
<path d="M3910 4022 c0 -4 9 -15 20 -25 22 -19 25 -15 10 14 -11 19 -30 26
-30 11z"/>
<path d="M3710 3976 c0 -2 7 -7 16 -10 8 -3 12 -2 9 4 -6 10 -25 14 -25 6z"/>
<path d="M3800 3923 c0 -12 -6 -24 -12 -26 -8 -4 -9 -6 -2 -6 20 -2 39 28 26
41 -9 9 -12 7 -12 -9z"/>
<path d="M3575 3900 c-3 -5 -1 -10 4 -10 6 0 11 5 11 10 0 6 -2 10 -4 10 -3 0
-8 -4 -11 -10z"/>
<path d="M3816 3855 c4 -8 10 -15 15 -15 4 0 6 7 3 15 -4 8 -10 15 -15 15 -4
0 -6 -7 -3 -15z"/>
<path d="M3878 3808 c7 -7 12 -22 12 -35 0 -42 24 -113 38 -113 9 0 12 6 8 16
-3 9 -6 25 -6 35 0 11 -4 17 -10 14 -6 -4 -10 8 -10 29 0 46 -9 66 -28 66 -12
0 -13 -3 -4 -12z"/>
<path d="M3380 3686 c0 -2 7 -7 16 -10 8 -3 12 -2 9 4 -6 10 -25 14 -25 6z"/>
<path d="M235 2580 c3 -5 8 -10 11 -10 2 0 4 5 4 10 0 6 -5 10 -11 10 -5 0 -7
-4 -4 -10z"/>
<path d="M280 2581 c0 -5 5 -13 10 -16 6 -3 10 -2 10 4 0 5 -4 13 -10 16 -5 3
-10 2 -10 -4z"/>
<path d="M6145 2560 c3 -5 16 -10 28 -10 18 0 19 2 7 10 -20 13 -43 13 -35 0z"/>
<path d="M7621 2261 c-11 -7 -5 -11 22 -15 20 -3 53 -9 73 -12 25 -4 38 -12
41 -25 4 -13 11 -18 20 -15 8 3 17 6 19 6 2 0 4 9 4 20 0 16 -7 20 -38 20 -21
0 -47 7 -58 15 -22 16 -62 19 -83 6z"/>
<path d="M7753 1963 c9 -2 25 -2 35 0 9 3 1 5 -18 5 -19 0 -27 -2 -17 -5z"/>
<path d="M6567 1953 c-12 -11 -8 -23 8 -23 8 0 15 7 15 15 0 16 -12 20 -23 8z"/>
<path d="M6788 1403 c7 -3 16 -2 19 1 4 3 -2 6 -13 5 -11 0 -14 -3 -6 -6z"/>
<path d="M7146 1371 c5 -5 20 -12 34 -15 l25 -7 -25 15 c-28 17 -50 21 -34 7z"/>
<path d="M5922 385 c3 -13 0 -26 -6 -28 -6 -2 -8 -8 -3 -12 4 -5 13 -3 19 3 7
7 25 12 40 12 15 0 28 5 28 11 0 5 5 7 10 4 6 -4 8 -11 4 -17 -4 -6 3 -8 17
-6 13 1 25 11 27 20 4 19 -49 38 -107 38 -30 0 -33 -2 -29 -25z"/>
<path d="M6790 406 c0 -2 9 -6 20 -9 11 -3 18 -1 14 4 -5 9 -34 13 -34 5z"/>
<path d="M6720 340 c0 -5 4 -10 9 -10 6 0 13 5 16 10 3 6 -1 10 -9 10 -9 0
-16 -4 -16 -10z"/>
<path d="M6215 290 c-3 -5 1 -17 9 -26 9 -8 16 -16 16 -17 0 -1 -17 -3 -38 -4
-20 -2 -41 -3 -47 -3 -5 -1 -28 3 -50 9 -49 13 -152 14 -159 2 -3 -5 18 -11
47 -15 175 -21 233 -30 242 -38 5 -4 -1 -8 -14 -8 -34 0 -16 -17 26 -25 21 -4
43 -11 50 -16 8 -7 10 -4 6 11 -3 11 -9 23 -14 26 -16 10 -9 24 12 24 11 0 17
5 14 10 -3 6 -17 10 -30 10 -13 0 -27 5 -30 10 -6 10 20 7 62 -5 7 -2 19 2 27
10 21 22 35 18 46 -10 7 -17 17 -25 34 -25 18 0 24 4 20 15 -4 10 0 15 12 15
26 0 12 9 -22 14 -16 2 -42 9 -58 15 -16 6 -32 8 -35 4 -9 -12 -82 -13 -75 -1
4 5 19 8 35 6 17 -3 26 -1 22 3 -13 13 -101 21 -108 9z"/>
<path d="M6465 270 c3 -5 20 -10 36 -10 18 0 28 4 24 10 -3 6 -20 10 -36 10
-18 0 -28 -4 -24 -10z"/>
<path d="M5606 261 c-10 -16 84 -31 112 -18 25 12 25 12 -14 19 -56 10 -92 9
-98 -1z"/>
<path d="M4942 247 c-15 -17 -6 -27 25 -27 18 0 24 5 21 17 -4 22 -31 28 -46
10z"/>
<path d="M6615 250 c-3 -5 3 -10 14 -10 12 0 21 5 21 10 0 6 -6 10 -14 10 -8
0 -18 -4 -21 -10z"/>
<path d="M5230 220 c-11 -7 -2 -10 33 -10 26 0 47 5 47 10 0 13 -60 13 -80 0z"/>
<path d="M6685 204 c35 -30 71 -32 71 -5 0 11 -4 18 -7 15 -4 -2 -10 0 -13 5
-3 5 -22 9 -42 9 l-37 0 28 -24z"/>
<path d="M6317 206 c-14 -11 -15 -15 -3 -19 8 -3 24 -3 35 0 12 3 21 1 21 -6
0 -6 16 -11 35 -11 19 0 35 5 35 10 0 6 -15 10 -34 10 -21 0 -36 6 -40 15 -7
18 -25 19 -49 1z"/>
<path d="M6470 180 c0 -5 5 -10 11 -10 5 0 7 5 4 10 -3 6 -8 10 -11 10 -2 0
-4 -4 -4 -10z"/>
<path d="M5630 140 c-8 -5 -31 -10 -51 -10 -21 0 -42 -7 -49 -15 -21 -26 0
-36 54 -26 40 7 46 7 35 -5 -9 -8 -52 -15 -124 -18 -209 -11 -197 -9 -191 -31
3 -11 6 -23 6 -27 0 -5 86 -8 191 -8 124 0 188 3 184 10 -4 7 3 7 20 0 15 -6
53 -10 87 -10 49 0 59 3 54 15 -4 11 1 15 17 15 21 1 21 1 4 14 -12 9 -14 16
-7 21 20 12 0 24 -83 48 -115 35 -130 37 -147 27z"/>
<path d="M6213 143 c9 -2 23 -2 30 0 6 3 -1 5 -18 5 -16 0 -22 -2 -12 -5z"/>
<path d="M6335 140 c27 -12 35 -12 35 0 0 6 -12 10 -27 9 -25 0 -26 -1 -8 -9z"/>
<path d="M6085 130 c-33 -4 -51 -8 -40 -10 11 -2 25 -4 30 -5 6 -2 18 -3 28
-4 25 -2 21 -21 -5 -22 -13 -1 6 -7 42 -14 86 -18 83 -18 65 9 -9 13 -14 30
-13 37 4 17 -23 19 -107 9z"/>
<path d="M5310 120 c0 -5 4 -10 9 -10 6 0 13 5 16 10 3 6 -1 10 -9 10 -9 0
-16 -4 -16 -10z"/>
<path d="M5880 10 c0 -5 12 -10 28 -10 21 0 24 2 12 10 -20 13 -40 13 -40 0z"/>
<path d="M4948 3 c7 -3 16 -2 19 1 4 3 -2 6 -13 5 -11 0 -14 -3 -6 -6z"/>
</g>
</svg>
